<?xml version="1.0" encoding="utf-8"?>
<!-- Generator: Adobe Illustrator 23.0.4, SVG Export Plug-In . SVG Version: 6.00 Build 0)  -->
<svg version="1.1" id="Layer_1" xmlns="http://www.w3.org/2000/svg" xmlns:xlink="http://www.w3.org/1999/xlink" x="0px" y="0px"
	 viewBox="0 0 360 90" style="enable-background:new 0 0 360 90;" xml:space="preserve">
<style type="text/css">
	.st0{fill:#FFFFFF;}
</style>
<g>
	<path class="st0" d="M110.28,44.83c0.35-0.63,0.42-1.28,0.22-1.94c-0.38-1.25-1.25-1.84-2.61-1.79c-0.95,0.03-1.88,0.22-2.79,0.55
		c-0.32,0.12-0.63,0.24-0.95,0.37c-0.28,0.1-0.56,0.2-0.82,0.3c-0.07,0.02-0.13,0.02-0.2,0.01s-0.12-0.03-0.15-0.06
		s-0.05-0.09-0.05-0.16s0.02-0.13,0.05-0.16c0-0.02,0.07-0.07,0.22-0.17c0.56-0.37,1.64-1.08,3.21-2.14
		c1.58-1.06,3.18-2.16,4.81-3.29c1.63-1.13,2.79-2,3.49-2.61c0.9-0.8,1.98-1.8,3.24-3s2.25-2.28,2.96-3.23
		c0.48-0.63,0.87-1.3,1.17-2.02c0.28-0.66,0.28-1.3,0-1.92c-0.38-0.81-1.02-1.12-1.92-0.92c-0.53,0.15-1.05,0.35-1.57,0.6
		c-1.31,0.71-2.53,1.57-3.66,2.57c-1.73,1.49-3.35,3.1-4.86,4.81c-3.93,4.42-7.68,8.99-11.23,13.72c-0.11,0.15-0.21,0.3-0.32,0.45
		c-0.4,0.19-0.91,0.45-1.55,0.77c-1.76,0.83-3.88,1.59-6.35,2.27c-2.59,0.63-4.37,0.95-5.33,0.95c-0.38,0-0.73-0.03-1.05-0.1
		c-0.35-0.12-0.52-0.33-0.52-0.65c0-0.27,0.19-0.69,0.57-1.27c0.13-0.18,0.35-0.45,0.65-0.8c0.65-0.6,1.07-0.94,1.27-1.02h0.07
		c0.32,0.18,0.73,0.27,1.25,0.27c0.46,0,1.09-0.08,1.87-0.25c0.61-0.17,1.11-0.33,1.49-0.5c0.53-0.23,1.06-0.51,1.59-0.85
		c0.37-0.28,0.55-0.61,0.55-0.97v-0.1c0-0.33-0.15-0.7-0.45-1.1c-0.25-0.27-0.47-0.44-0.67-0.52c-0.28-0.12-0.53-0.17-0.75-0.17
		c-1.18,0-2.62,0.45-4.33,1.34c-0.76,0.43-1.52,0.97-2.27,1.62c-0.38,0.33-0.68,0.62-0.9,0.87c-0.27,0.27-0.48,0.54-0.67,0.82
		c-1.52,1.18-3.02,2.29-4.51,3.28c-1.66,1.1-3.48,2.14-5.45,3.1c-0.78,0.38-1.58,0.71-2.39,1c-0.28,0.08-0.57,0.1-0.87,0.05
		c-0.05,0-0.09,0-0.12,0c-0.05-0.02-0.1-0.05-0.16-0.1s-0.09-0.11-0.09-0.17c-0.03-0.27-0.02-0.52,0.05-0.77
		c0.33-1.16,0.8-2.27,1.39-3.34c1.01-1.73,2.13-3.4,3.34-5.01c0.32-0.43,0.7-0.8,1.15-1.1c2.27-1.54,4.52-3.11,6.75-4.71
		c3.29-2.34,6.33-4.95,9.14-7.82c0.86-0.85,1.64-1.77,2.34-2.76c0.5-0.78,0.42-1.51-0.22-2.19c-0.33-0.38-0.76-0.5-1.27-0.35
		c-0.76,0.25-1.49,0.58-2.19,1c-1.89,1.15-3.67,2.45-5.33,3.91c-1.88,1.63-3.66,3.34-5.35,5.14c-1.69,1.8-3.31,3.68-4.86,5.64
		c-0.1,0.13-0.2,0.27-0.3,0.4c-0.32,0.46-0.7,0.87-1.15,1.22c-0.08,0.07-0.16,0.14-0.24,0.21s-0.12,0.16-0.14,0.26
		c-0.13,0.48-0.36,0.9-0.67,1.27c-0.1,0.15-0.2,0.3-0.3,0.45c-0.08,0.13-0.16,0.26-0.25,0.38c-0.3,0.11-1.1,0.49-2.42,1.16
		c-1.76,0.83-3.88,1.59-6.35,2.27c-2.59,0.63-4.37,0.95-5.33,0.95c-0.38,0-0.73-0.03-1.05-0.1c-0.35-0.12-0.52-0.33-0.52-0.65
		c0-0.27,0.19-0.69,0.57-1.27c0.13-0.18,0.35-0.45,0.65-0.8c0.65-0.6,1.07-0.94,1.27-1.02h0.07c0.32,0.18,0.73,0.27,1.25,0.27
		c0.46,0,1.09-0.08,1.87-0.25c0.61-0.17,1.11-0.33,1.49-0.5c0.53-0.23,1.06-0.51,1.59-0.85c0.37-0.28,0.55-0.61,0.55-0.97v-0.1
		c0-0.33-0.15-0.7-0.45-1.1c-0.25-0.27-0.47-0.44-0.67-0.52c-0.28-0.12-0.53-0.17-0.75-0.17c-1.18,0-2.62,0.45-4.33,1.34
		c-0.76,0.43-1.52,0.97-2.27,1.62c-0.38,0.33-0.68,0.62-0.89,0.87c-0.02,0.01-0.03,0.02-0.05,0.03c-4.28,2.36-8.8,4.4-13.56,6.13
		c-4.76,1.73-9.53,3.04-14.33,3.93c-2.51,0.48-5.04,0.67-7.6,0.57c-1.08-0.07-2.13-0.26-3.16-0.57c-0.43-0.15-0.86-0.34-1.27-0.57
		c-0.85-0.46-1.25-1.18-1.22-2.14c0.02-0.46,0.07-0.93,0.17-1.39c0.37-1.51,1-2.9,1.92-4.16c0.96-1.38,2.03-2.67,3.19-3.89
		c4.22-4.45,8.97-8.23,14.25-11.33c3.29-1.96,6.75-3.55,10.39-4.78c1.59-0.53,3.22-0.91,4.88-1.15c0.43-0.07,0.86-0.1,1.3-0.09
		c0.43,0.01,0.86,0.08,1.3,0.21c0.05,0.02,0.11,0.04,0.17,0.07c0.07,0.02,0.13,0.03,0.2,0.05c0.18,0.07,0.33,0.19,0.45,0.37
		c0.12,0.18,0.18,0.37,0.2,0.57c-0.07,1.01-0.35,1.97-0.85,2.86c-0.63,1.11-1.37,2.14-2.22,3.09c-0.2,0.23-0.4,0.46-0.6,0.7
		c-0.25,0.28-0.49,0.56-0.72,0.82c-0.17,0.25-0.17,0.5,0,0.75c0.08,0.18,0.21,0.34,0.37,0.47c0.15,0.15,0.33,0.17,0.55,0.07
		c0.03-0.02,0.07-0.03,0.1-0.05c0.1-0.03,0.18-0.08,0.25-0.15c1.76-1.49,3.1-3.3,4.01-5.43c0.15-0.35,0.26-0.71,0.32-1.07
		c0-0.03,0-0.07,0-0.1c0.3-1.43-0.07-2.65-1.12-3.66c-0.81-0.78-1.78-1.19-2.89-1.22c-0.8-0.02-1.59,0.03-2.39,0.15
		c-1.36,0.22-2.7,0.52-4.01,0.92c-1.31,0.4-2.6,0.87-3.86,1.42c-6.04,2.52-11.55,5.92-16.51,10.19c-1.15,0.98-2.26,2-3.34,3.05
		c-1.08,1.05-2.1,2.16-3.06,3.32c-0.96,1.13-1.81,2.33-2.54,3.61c-0.32,0.6-0.59,1.21-0.82,1.83c-0.23,0.62-0.38,1.27-0.45,1.96
		c-0.2,2.42,0.72,4.3,2.76,5.63c1.05,0.66,2.17,1.06,3.39,1.2c0.32,0.03,0.62,0.07,0.92,0.1c0.61,0.08,1.22,0.14,1.81,0.17
		s1.16-0.01,1.71-0.12c1.76-0.05,3.47-0.22,5.13-0.51c1.66-0.29,3.3-0.65,4.93-1.08c1.54-0.4,3.78-1.15,6.7-2.25
		c2.92-1.1,5.89-2.35,8.89-3.75c1.97-0.91,3.67-1.8,5.12-2.65c-0.03,0.18-0.06,0.35-0.06,0.54v0.05c0,0.55,0.17,1.1,0.5,1.64
		c0.18,0.3,0.42,0.56,0.72,0.8c0.51,0.43,1.28,0.65,2.29,0.65h0.07c0.63,0,1.34-0.07,2.14-0.22c0.18,0,0.92-0.18,2.22-0.55
		c0.93-0.27,1.8-0.56,2.61-0.87c1.99-0.76,3.76-1.62,5.32-2.58c-0.09,0.14-0.18,0.27-0.26,0.41c-0.61,1.03-1.12,2.12-1.52,3.26
		c-0.23,0.63-0.35,1.29-0.35,1.97c0,0.53,0.14,1.04,0.42,1.52c0.45,0.78,1.07,1.16,1.87,1.15c0.63,0.02,1.19-0.07,1.67-0.27
		c0.22-0.1,0.44-0.19,0.67-0.27c0.35-0.12,0.68-0.25,1-0.4c3.14-1.56,6.01-3.5,8.62-5.83c0.03-0.02,0.06-0.03,0.07-0.05
		c0.01-0.01,0.03-0.03,0.05-0.04c0.05,0.45,0.2,0.89,0.48,1.34c0.18,0.3,0.42,0.56,0.72,0.8c0.51,0.43,1.28,0.65,2.29,0.65H86
		c0.63,0,1.34-0.07,2.14-0.22c0.18,0,0.92-0.18,2.22-0.55c0.93-0.27,1.8-0.56,2.61-0.87c1.49-0.57,2.85-1.19,4.09-1.87
		c-1.23,1.77-2.42,3.56-3.55,5.38c-0.3,0.48-0.2,0.77,0.31,0.87c0.51,0.1,0.96-0.14,1.36-0.72c0.37-0.53,0.74-1.05,1.12-1.57
		c0.25-0.4,0.47-0.64,0.67-0.73c0.2-0.09,0.48-0.07,0.85,0.06c0.43,0.13,0.86,0.22,1.3,0.27c0.43,0.05,0.86,0.08,1.3,0.1
		c0.02,0,0.03,0,0.05,0c0.58,0,1.14-0.04,1.68-0.11c0.54-0.07,1.08-0.2,1.61-0.39c1.88-0.68,3.54-1.74,5.01-3.16
		C109.37,46.28,109.88,45.6,110.28,44.83z M107.17,36.86c0.02-0.03,0.03-0.06,0.05-0.07c0.07-0.17,0.16-0.32,0.27-0.45
		c0.43-0.5,0.87-1,1.32-1.52c1.33-1.53,2.68-3.05,4.06-4.56c1.46-1.58,3.06-3,4.81-4.26c0.8-0.61,1.65-1.1,2.57-1.47
		c0.05-0.02,0.11-0.02,0.17-0.01s0.12,0.04,0.15,0.09c0.03,0.03,0.05,0.09,0.05,0.16s-0.02,0.14-0.05,0.19
		c0,0.02-0.01,0.03-0.02,0.05c-0.27,0.46-0.56,0.92-0.9,1.37c-1.2,1.59-2.54,3.06-4.03,4.41c-2.46,2.18-5.03,4.2-7.72,6.08
		c-0.12,0.08-0.24,0.15-0.37,0.2c-0.07,0.03-0.12,0.07-0.17,0.1c-0.02-0.02-0.03-0.03-0.05-0.05c-0.05-0.02-0.08-0.04-0.1-0.07
		s-0.03-0.06-0.04-0.09S107.15,36.9,107.17,36.86z M88.59,43.16c1.39-0.58,2.33-0.88,2.81-0.9c0.12,0.02,0.17,0.04,0.17,0.07
		c0,0.1-0.13,0.26-0.4,0.47c-0.25,0.17-0.65,0.36-1.2,0.57c-1.13,0.38-1.91,0.57-2.34,0.57c-0.1,0-0.15-0.02-0.15-0.07
		C87.49,43.75,87.86,43.51,88.59,43.16z M80.05,36.54c0.02-0.03,0.03-0.07,0.05-0.12c0.03-0.07,0.07-0.13,0.12-0.2
		c2.64-2.92,5.55-5.55,8.74-7.89c0.32-0.22,0.65-0.42,1-0.6c0.12-0.07,0.24-0.13,0.37-0.2c0.02,0,0.04,0.01,0.07,0.02
		s0.06,0.03,0.07,0.05c0.03,0.02,0.06,0.04,0.07,0.06s0.02,0.05,0.02,0.06c-0.05,0.13-0.12,0.25-0.2,0.35
		c-3.02,3.22-6.35,6.07-9.99,8.54c-0.05,0.03-0.1,0.05-0.15,0.05c-0.02,0-0.03,0-0.05,0C79.98,36.78,79.93,36.74,80.05,36.54z
		 M60.49,43.16c1.39-0.58,2.33-0.88,2.81-0.9c0.12,0.02,0.17,0.04,0.17,0.07c0,0.1-0.13,0.26-0.4,0.47
		c-0.25,0.17-0.65,0.36-1.2,0.57c-1.13,0.38-1.91,0.57-2.34,0.57c-0.1,0-0.15-0.02-0.15-0.07C59.4,43.75,59.76,43.51,60.49,43.16z
		 M106.74,46.13c-0.73,0.56-1.5,1.06-2.32,1.49c-1.79,0.96-3.57,1.43-5.33,1.39c-0.05,0-0.12-0.01-0.2-0.02
		c-0.22-0.05-0.47-0.12-0.77-0.2c-0.13-0.05-0.16-0.16-0.07-0.32c0.32-0.65,0.76-1.2,1.32-1.64c1.15-0.88,2.34-1.65,3.57-2.3
		s2.54-1.18,3.9-1.58c0.68-0.17,1.35-0.22,2.02-0.15c0.1,0.03,0.18,0.11,0.24,0.24c0.06,0.12,0.06,0.25,0.01,0.39
		c-0.03,0.05-0.07,0.1-0.1,0.15c-0.1,0.2-0.21,0.39-0.32,0.57C108.12,44.9,107.47,45.56,106.74,46.13z"/>
	<path class="st0" d="M122.08,44.03c0.12-0.17,0.23-0.33,0.35-0.5c0.05-0.05,0.09-0.11,0.12-0.17c0.13-0.18,0.27-0.38,0.4-0.6
		c0.13-0.28,0.14-0.59,0.02-0.92c-0.17-0.42-0.42-0.71-0.76-0.87c-0.34-0.17-0.7-0.17-1.08,0c-0.03,0.02-0.07,0.02-0.1,0.02
		c-0.37,0.17-0.72,0.35-1.07,0.55c-1.23,0.8-2.46,1.61-3.69,2.44c-0.33,0.23-0.66,0.47-1,0.72c-0.22,0.15-0.43,0.3-0.65,0.45
		c0,0.02-0.01,0.02-0.04,0.02s-0.05,0-0.06,0c-0.03,0-0.06,0-0.07,0c-0.15,0.03-0.18-0.02-0.1-0.15c0.13-0.22,0.27-0.43,0.42-0.65
		c0.12-0.2,0.23-0.39,0.35-0.57c0.15-0.25,0.31-0.49,0.47-0.72c0.4-0.65,0.8-1.3,1.2-1.94c0.13-0.23,0.16-0.47,0.07-0.71
		c-0.08-0.24-0.26-0.44-0.52-0.61c-0.05-0.03-0.11-0.05-0.17-0.06c-0.07-0.01-0.12,0-0.17,0.01c-0.17,0.1-0.31,0.22-0.42,0.37
		c-2.41,3.32-4.81,6.65-7.22,9.99c-0.23,0.28-0.43,0.59-0.6,0.92c-0.2,0.43-0.12,0.85,0.22,1.25c0.15,0.18,0.32,0.3,0.51,0.35
		c0.19,0.05,0.36,0.02,0.51-0.1c0.5-0.45,0.99-0.9,1.47-1.37c2.59-2.46,5.36-4.69,8.32-6.7c0.15-0.1,0.31-0.18,0.47-0.25
		c0.07-0.03,0.12-0.06,0.17-0.07c0.13-0.05,0.18-0.01,0.15,0.12c-0.05,0.13-0.1,0.27-0.15,0.4c-0.07,0.22-0.13,0.43-0.2,0.65
		c-0.07,0.2-0.07,0.39-0.02,0.57c0.08,0.32,0.21,0.61,0.39,0.88c0.17,0.27,0.42,0.5,0.73,0.68c0.18,0.08,0.39,0.12,0.62,0.1
		c0.03,0,0.07,0,0.1,0c0.1,0,0.17-0.05,0.22-0.14c0.05-0.09,0.06-0.18,0.02-0.26c-0.02-0.03-0.03-0.07-0.05-0.1
		c-0.03-0.08-0.08-0.17-0.15-0.25c-0.4-0.37-0.45-0.76-0.15-1.17C121.35,45.12,121.72,44.58,122.08,44.03z"/>
	<path class="st0" d="M159.59,37.15c0.03,0.24,0.14,0.45,0.32,0.64c0.07,0.05,0.15,0.08,0.25,0.1c0.07,0.02,0.13,0.04,0.2,0.07
		c0.18-0.1,0.37-0.2,0.55-0.3c0.55-0.28,1.1-0.58,1.67-0.9c0.05-0.02,0.09-0.06,0.12-0.12c0.03-0.07,0.06-0.13,0.07-0.2
		c0.07-0.35-0.04-0.65-0.32-0.9c-0.25-0.27-0.55-0.34-0.9-0.22c-0.7,0.27-1.3,0.67-1.79,1.22C159.62,36.7,159.56,36.91,159.59,37.15
		z"/>
	<path class="st0" d="M203.02,44.11c-4.03,2.42-6.43,3.81-7.17,4.16c-0.48,0.22-0.81,0.37-1,0.45c-0.25,0.1-0.51,0.18-0.8,0.25
		c-0.08,0.03-0.17,0.07-0.27,0.1c-0.15,0.03-0.21-0.02-0.17-0.15c0.02-0.05,0.03-0.1,0.05-0.15c0.07-0.18,0.14-0.36,0.22-0.52
		c1.15-1.88,2.19-3.82,3.14-5.83c0.15-0.28,0.26-0.57,0.32-0.87c0.02-0.08,0.01-0.18-0.01-0.29s-0.06-0.2-0.11-0.29
		c-0.22-0.28-0.46-0.55-0.75-0.8c-0.12-0.12-0.24-0.18-0.39-0.19c-0.14-0.01-0.26,0.03-0.36,0.11c-0.3,0.28-0.6,0.58-0.9,0.9
		c-1.36,1.39-2.8,2.7-4.32,3.91c-1.52,1.21-3.15,2.3-4.89,3.26c-0.83,0.43-1.68,0.82-2.54,1.17c-0.03,0.02-0.06,0.02-0.07,0.02
		c-0.3,0.13-0.61,0.23-0.93,0.3c-0.32,0.07-0.68,0.02-1.08-0.12c-0.17-0.33-0.22-0.63-0.16-0.88c0.06-0.26,0.15-0.5,0.29-0.73
		c0.08-0.18,0.16-0.36,0.22-0.52c0.02-0.05,0.03-0.09,0.05-0.12c0.02-0.02,0.02-0.03,0.02-0.05c1.3-2.06,3.05-3.64,5.25-4.73
		c0.38-0.2,0.79-0.35,1.22-0.45c0.55-0.13,1.1-0.18,1.66-0.15s1.12,0.23,1.71,0.6c0.02,0.02,0.04,0.03,0.07,0.05
		s0.06,0.03,0.07,0.04s0.03,0,0.05-0.01l0.02-0.02c0.03-0.03,0.06-0.07,0.09-0.12s0.04-0.09,0.04-0.12
		c-0.05-0.22-0.14-0.41-0.27-0.57c-0.76-0.78-1.64-1.22-2.64-1.32c-0.83-0.12-1.61-0.03-2.34,0.25c-2.09,0.8-3.81,2.01-5.16,3.6
		c-0.23,0.1-0.46,0.2-0.73,0.33c-0.76,0.38-1.65,0.87-2.68,1.47c-1.03,0.6-1.77,1-2.22,1.2c-0.08,0.03-0.17,0.02-0.25-0.05
		s-0.12-0.15-0.12-0.25s0.01-0.2,0.02-0.3c0-0.03,0-0.07,0-0.12c0.12-0.51,0.08-1.03-0.1-1.54c-0.22-0.63-0.59-1.09-1.11-1.38
		c-0.52-0.29-1.09-0.35-1.71-0.19c-0.78,0.22-1.52,0.53-2.22,0.95c-0.46,0.27-0.92,0.54-1.37,0.82c-0.46,0.28-0.92,0.56-1.37,0.85
		c-0.23,0.13-0.47,0.25-0.72,0.35c-0.02,0-0.04-0.01-0.07-0.02s-0.06-0.03-0.07-0.05c-0.02,0-0.03-0.01-0.05-0.04
		s-0.03-0.05-0.05-0.09c0.03-0.07,0.07-0.12,0.1-0.17c0.12-0.25,0.25-0.48,0.4-0.7c0.28-0.37,0.52-0.68,0.71-0.93
		c0.19-0.26,0.38-0.51,0.56-0.76c0.25-0.33,0.55-0.73,0.9-1.2c0.05-0.07,0.1-0.12,0.15-0.17c0.22-0.27,0.38-0.54,0.49-0.81
		c0.11-0.27,0.04-0.58-0.21-0.91c-0.12-0.13-0.29-0.22-0.51-0.26c-0.22-0.04-0.39,0-0.51,0.11c-0.12,0.12-0.2,0.2-0.25,0.25
		c-0.05,0.05-0.08,0.09-0.1,0.11s-0.04,0.05-0.06,0.09s-0.06,0.08-0.11,0.15c-0.05,0.05-0.11,0.12-0.17,0.22
		c-0.9,1.18-1.78,2.36-2.66,3.54c-0.48,0.23-1.01,0.48-1.64,0.79c-1.15,0.56-2.45,1.17-3.91,1.82s-2.98,1.2-4.56,1.67
		c-0.7,0.2-1.41,0.38-2.14,0.55c-0.18,0.03-0.37,0.05-0.57,0.05c-0.07,0-0.14,0-0.22,0c-0.1,0-0.18-0.04-0.25-0.12
		s-0.09-0.17-0.07-0.25c0.2-0.56,0.46-1.08,0.77-1.54c0.32-0.46,0.66-0.91,1.02-1.34c0.05-0.05,0.09-0.1,0.12-0.15
		c1.1-1.34,2.26-2.63,3.49-3.86c0.43-0.46,0.38-0.91-0.15-1.34c-0.12-0.08-0.24-0.13-0.39-0.14s-0.26,0.02-0.36,0.09
		c-0.05,0.03-0.09,0.07-0.12,0.1c-0.18,0.12-0.36,0.24-0.52,0.37c-1.11,1.01-2.11,2.11-3.05,3.26c-0.12,0.05-0.23,0.1-0.36,0.17
		c-0.96,0.58-2.18,1.21-3.66,1.88c-1.48,0.67-2.95,1.26-4.42,1.77c-1.47,0.51-2.67,0.82-3.6,0.93c-0.15,0-0.27-0.05-0.36-0.16
		c-0.09-0.11-0.11-0.22-0.06-0.34c0.08-0.18,0.17-0.36,0.25-0.52c0.22-0.51,0.46-1,0.75-1.44c0.73-1.13,1.52-2.21,2.37-3.24
		c1.56-1.81,3.14-3.6,4.73-5.38c0.23-0.27,0.47-0.53,0.72-0.8c0.46-0.51,0.94-1.02,1.42-1.52c0.27-0.27,0.53-0.54,0.8-0.82
		c0.33-0.37,0.75-0.55,1.25-0.55c0.38-0.02,0.76-0.03,1.15-0.05c0.28-0.02,0.56-0.03,0.85-0.05c0.61-0.02,1.23-0.03,1.84-0.05
		c1-0.02,1.99-0.04,2.99-0.07c0.2-0.02,0.39-0.06,0.57-0.12c0.03-0.03,0.06-0.09,0.09-0.16s0.04-0.14,0.04-0.19
		c-0.18-0.48-0.52-0.77-1.02-0.87c-0.33-0.05-0.66-0.07-1-0.05c-0.58,0.02-1.16,0.04-1.74,0.07c-0.37,0.02-0.72,0.03-1.07,0.05
		c-0.03,0-0.06,0-0.07,0c-0.38,0.02-0.76,0.02-1.12,0c-0.05,0-0.1-0.02-0.15-0.06s-0.09-0.09-0.12-0.14
		c-0.02-0.03-0.02-0.07-0.01-0.1s0.02-0.07,0.04-0.1c0.03-0.05,0.07-0.1,0.12-0.15c0.15-0.22,0.32-0.42,0.52-0.6
		c1.43-1.34,2.86-2.68,4.28-4.01c0.38-0.35,0.76-0.71,1.15-1.07c0.12-0.1,0.23-0.2,0.35-0.3c0.23-0.22,0.46-0.43,0.67-0.65
		c0.2-0.23,0.24-0.48,0.12-0.75c-0.12-0.27-0.28-0.44-0.5-0.51s-0.42-0.04-0.62,0.11c-0.33,0.23-0.66,0.47-0.97,0.72
		c-2.37,1.96-4.66,4.03-6.85,6.2c-0.1,0.1-0.2,0.2-0.3,0.3c-0.28,0.28-0.56,0.56-0.85,0.82c-0.25,0.25-0.55,0.38-0.9,0.4
		c-0.12,0.02-0.23,0.02-0.35,0.02c-0.15,0-0.3,0-0.45,0c-0.48,0.03-0.96,0.06-1.44,0.07c-1.73,0.07-3.45,0.14-5.18,0.22
		c-0.27,0.02-0.53,0.07-0.8,0.15c-0.05,0.02-0.11,0.03-0.17,0.05c-0.13,0.03-0.18,0.14-0.15,0.32c0.1,0.46,0.37,0.72,0.8,0.77
		c0.76,0.05,1.54,0.08,2.32,0.1c0.3,0,0.6,0,0.9,0v-0.02c0.13,0,0.27,0,0.42,0c0.8,0,1.59,0,2.39,0c0.02,0,0.04,0,0.06,0.01
		s0.05,0.02,0.06,0.02s0.02,0.02,0.02,0.04s0.01,0.03,0.02,0.05c0,0.07,0,0.13,0,0.19c0,0.06-0.01,0.1-0.02,0.14
		c-0.25,0.3-0.5,0.6-0.75,0.9c-0.02,0-0.03,0.01-0.05,0.02c-0.46,0.53-0.94,1.07-1.42,1.62c-1.06,1.15-2.1,2.31-3.11,3.49
		c-0.77,0.92-1.5,1.86-2.2,2.83c-0.41,0.16-1.36,0.83-2.87,2.02c-1.65,1.3-3.93,2.62-6.84,3.95c-0.08,0.02-0.15,0-0.21-0.05
		c-0.06-0.05-0.08-0.12-0.06-0.2c0.07-0.27,0.16-0.52,0.29-0.76c0.12-0.24,0.26-0.47,0.41-0.68c0.02-0.02,0.03-0.04,0.05-0.07
		c0.91-1.43,1.97-2.75,3.16-3.96c0.07-0.07,0.13-0.12,0.2-0.17c0.17-0.15,0.32-0.31,0.45-0.47c0.13-0.18,0.16-0.38,0.07-0.6
		c-0.12-0.28-0.3-0.52-0.55-0.72c-0.1-0.07-0.2-0.1-0.3-0.1c-0.1,0-0.19,0.03-0.27,0.1c-0.2,0.15-0.39,0.32-0.57,0.5
		c-1.1,1-2.26,1.88-3.5,2.66s-2.54,1.46-3.9,2.04c-0.61,0.25-1.25,0.46-1.89,0.65c-0.05,0.02-0.15,0.03-0.29,0.04s-0.29,0.01-0.44,0
		c-0.15-0.01-0.27-0.04-0.36-0.09s-0.1-0.13-0.04-0.25c0.4-0.75,0.93-1.39,1.61-1.93c0.67-0.54,1.41-0.99,2.22-1.36
		c0.81-0.37,1.61-0.66,2.43-0.9c0.53-0.15,0.96-0.22,1.28-0.22c0.32,0,0.61,0.02,0.86,0.05c0.23,0.03,0.49,0.06,0.77,0.07
		c0.07-0.03,0.12-0.12,0.16-0.25c0.04-0.13,0.04-0.29-0.01-0.46s-0.19-0.34-0.42-0.49c-0.4-0.3-0.83-0.48-1.3-0.55
		c-0.46-0.07-0.94-0.06-1.42,0.02c-1.26,0.13-2.44,0.49-3.55,1.08s-1.97,1.24-2.59,1.96s-0.95,1.27-0.98,1.67
		c-0.2,0.42-0.24,0.85-0.14,1.3c0.11,0.45,0.32,0.83,0.65,1.15c0.32,0.32,0.73,0.48,1.21,0.5c0.63,0.02,1.25-0.07,1.84-0.25
		c0.91-0.32,1.81-0.69,2.69-1.12c0.3-0.15,0.61-0.29,0.92-0.42c0.02,0,0.03-0.01,0.05-0.02c0.02,0,0.04,0,0.07,0.01
		s0.06,0.02,0.07,0.04s0.03,0.04,0.05,0.06s0.02,0.05,0.02,0.06c-0.05,0.15-0.1,0.3-0.15,0.45c-0.08,0.23-0.16,0.47-0.22,0.72
		c-0.1,0.42-0.07,0.84,0.1,1.27c0.17,0.43,0.43,0.77,0.8,1.02c0.27,0.18,0.56,0.27,0.9,0.27c0.25,0.02,0.49-0.01,0.73-0.07
		c0.24-0.07,0.48-0.13,0.71-0.2c0.02-0.02,0.03-0.02,0.05-0.02c0.25-0.08,0.99-0.56,2.23-1.43c0.89-0.63,2.29-1.69,4.17-3.17
		c-0.02,0.03-0.03,0.06-0.05,0.09c-0.25,0.5-0.37,1.02-0.35,1.57c-0.02,0.7,0.22,1.3,0.7,1.82c0.33,0.37,0.74,0.56,1.22,0.6
		c0.68,0.07,1.34,0.01,1.99-0.17c0.58-0.18,1.15-0.37,1.72-0.57c1.56-0.56,3.05-1.25,4.46-2.07c0.74-0.43,1.46-0.89,2.17-1.37
		c-0.11,0.2-0.25,0.37-0.35,0.58c-0.18,0.35-0.31,0.72-0.37,1.12c-0.05,0.43,0,0.86,0.16,1.27c0.16,0.42,0.41,0.76,0.76,1.05
		c0.35,0.28,0.79,0.42,1.32,0.42c0.5-0.02,1.29-0.2,2.37-0.55c1.08-0.35,2.28-0.8,3.6-1.36s2.6-1.14,3.84-1.76
		c0.38-0.19,0.74-0.38,1.08-0.56c-0.34,0.45-0.68,0.9-1.02,1.36c-0.37,0.48-0.7,0.99-1,1.52c-0.37,0.61-0.28,1.22,0.25,1.82
		c0.1,0.13,0.24,0.22,0.44,0.26c0.19,0.04,0.34,0.02,0.46-0.06c0.07-0.05,0.13-0.09,0.2-0.12c0.48-0.33,0.95-0.69,1.42-1.07
		c2.08-1.69,4.27-3.22,6.57-4.58c0.78-0.51,1.63-0.9,2.54-1.15c0.07-0.02,0.13-0.03,0.2-0.04s0.13-0.01,0.2-0.01
		c0.05,0.03,0.1,0.07,0.16,0.11s0.09,0.09,0.09,0.14c0.05,0.2,0.05,0.4,0,0.6c-0.08,0.28-0.18,0.56-0.3,0.82
		c-0.13,0.35-0.25,0.71-0.35,1.07c-0.2,0.6-0.12,1.17,0.25,1.72c0.32,0.48,0.71,0.62,1.2,0.42c0.35-0.17,0.7-0.34,1.05-0.52
		c1.65-1.15,2.97-2.1,3.99-2.85c-0.25,0.55-0.4,1.13-0.43,1.76c-0.02,0.2,0.02,0.4,0.1,0.6c0.2,0.61,0.51,1.17,0.95,1.67
		c0.38,0.4,0.82,0.64,1.32,0.72c0.91,0.15,1.75,0.07,2.52-0.25c0.03,0,0.06-0.01,0.07-0.02c0.93-0.33,1.81-0.73,2.64-1.2
		c1.03-0.61,2.03-1.26,3.01-1.94c0.4-0.25,0.79-0.5,1.17-0.75c0.17-0.12,0.32-0.22,0.47-0.32c0.15-0.1,0.3-0.2,0.45-0.3
		c0.02-0.02,0.04-0.02,0.07-0.02s0.07,0.01,0.1,0.02c0.2,0.05,0.25,0.15,0.15,0.3c-0.1,0.15-0.2,0.3-0.3,0.45
		c-0.66,1.11-1.32,2.22-1.97,3.31c-0.37,0.58-0.86,1.03-1.47,1.34c-1.71,1-3.4,2.02-5.06,3.06c-1.88,1.18-3.61,2.53-5.21,4.06
		c-0.73,0.71-1.41,1.49-2.04,2.32c-0.38,0.53-0.7,1.12-0.95,1.77c-0.07,0.17-0.11,0.35-0.14,0.56s0,0.4,0.06,0.59
		c0.2,0.63,0.51,1.12,0.93,1.47c0.42,0.35,0.93,0.48,1.53,0.4c0.38-0.07,0.75-0.17,1.1-0.32c0.91-0.42,1.75-0.93,2.52-1.54
		c1.44-1.15,2.76-2.4,3.96-3.76c1.91-2.14,3.65-4.41,5.23-6.8c0.38-0.65,0.92-1.13,1.62-1.44c0.25-0.12,0.49-0.24,0.72-0.37
		c0.13-0.08,0.27-0.17,0.42-0.25c0.12-0.07,0.4-0.21,0.85-0.42c0.95-0.45,2.15-1.11,3.62-1.98c1.47-0.87,2.8-1.75,4-2.63
		c1.2-0.88,1.89-1.53,2.09-1.94C203.86,44.26,203.61,44.09,203.02,44.11z M186.54,55.27c-0.08,0.12-0.18,0.25-0.3,0.4
		c-0.12,0.15-0.22,0.29-0.32,0.44c-0.1,0.14-0.17,0.24-0.22,0.31c-0.15,0.18-0.3,0.37-0.45,0.57c-0.4,0.53-0.81,1.05-1.25,1.57
		c-1.3,1.53-2.73,2.91-4.31,4.16c-0.55,0.43-1.12,0.81-1.72,1.15l-0.07,0.05c-0.07,0.05-0.17,0.11-0.3,0.19s-0.27,0.15-0.4,0.21
		c-0.13,0.07-0.24,0.1-0.32,0.11s-0.12-0.04-0.12-0.14c0.03-0.13,0.1-0.28,0.2-0.45c0.1-0.17,0.2-0.32,0.3-0.47
		c0.05-0.07,0.09-0.12,0.12-0.17c0.7-1.05,1.57-2.06,2.61-3.05c1.05-0.99,2.15-1.91,3.31-2.76c1.16-0.86,2.27-1.61,3.34-2.25
		C186.65,55.1,186.62,55.15,186.54,55.27z"/>
</g>
<g>
	<path class="st0" d="M234.43,41.83c-0.55-0.36-1.15-0.64-1.79-0.83c-0.6-0.2-1.2-0.38-1.81-0.55c-0.61-0.17-1.23-0.28-1.88-0.35
		c-0.12-0.02-0.22-0.06-0.32-0.12h-0.02c-0.02-0.02-0.02-0.03-0.02-0.05s0-0.04,0-0.06s0.01-0.05,0.02-0.06
		c0.03-0.02,0.06-0.04,0.07-0.07c0.12-0.12,0.24-0.21,0.37-0.27c0.86-0.35,1.73-0.7,2.59-1.05c0.91-0.37,1.83-0.73,2.76-1.1
		c1.34-0.51,2.63-1.15,3.86-1.92c0.58-0.37,1.13-0.77,1.64-1.22c0.85-0.83,0.95-1.74,0.32-2.71c-0.37-0.58-0.88-0.95-1.54-1.12
		c-0.8-0.17-1.59-0.29-2.39-0.37c-0.5-0.03-1-0.05-1.49-0.05c-0.1,0-0.21,0-0.32,0c-2.03-0.05-4.04,0.13-6.05,0.55
		c-0.71,0.17-1.41,0.37-2.09,0.62c-0.08,0.03-0.17,0.07-0.25,0.1c-0.2,0.07-0.34,0.2-0.41,0.39c-0.07,0.19-0.08,0.4-0.01,0.64
		c0.07,0.22,0.18,0.37,0.35,0.47c0.17,0.1,0.35,0.13,0.55,0.1c0.32-0.08,0.62-0.17,0.92-0.25c0.61-0.17,1.23-0.32,1.84-0.45
		c1.43-0.28,2.85-0.44,4.26-0.46c1.41-0.02,2.82,0.03,4.23,0.16c0.35,0.05,0.69,0.15,1.02,0.3c0.03,0.02,0.07,0.03,0.12,0.05
		c0.02,0,0.03,0.02,0.05,0.07s0.02,0.1,0.02,0.15s-0.01,0.08-0.02,0.1c-0.15,0.23-0.33,0.43-0.55,0.6c-1,0.75-2.07,1.36-3.21,1.84
		c-1.56,0.7-3.14,1.36-4.73,1.99c-0.75,0.3-1.49,0.59-2.24,0.87c-0.66,0.25-1.32,0.51-1.97,0.77c-0.51,0.2-1,0.43-1.47,0.7
		c-0.08,0.05-0.16,0.12-0.22,0.21s-0.12,0.18-0.15,0.26c-0.1,0.35-0.07,0.68,0.09,1c0.16,0.32,0.39,0.52,0.71,0.62
		c0.32,0.08,0.64,0.14,0.97,0.17c0.56,0.07,1.19,0.14,1.87,0.22c0.33,0.03,0.69,0.07,1.07,0.12c0.15,0.02,0.31,0.05,0.47,0.1
		c0.81,0.17,1.72,0.36,2.71,0.57c0.86,0.22,1.64,0.58,2.34,1.1c0.27,0.18,0.5,0.41,0.7,0.67c0.22,0.27,0.27,0.57,0.15,0.92
		c-0.05,0.2-0.12,0.39-0.22,0.57c-0.55,0.96-1.3,1.75-2.24,2.37c-0.86,0.58-1.76,1.08-2.69,1.49c-0.93,0.42-1.89,0.77-2.89,1.07
		c-0.02,0.02-0.04,0.02-0.07,0.02c-0.27,0.1-0.46,0.16-0.6,0.17s-0.24-0.02-0.31-0.11s-0.16-0.25-0.26-0.49
		c-0.03-0.05-0.07-0.11-0.1-0.17c-0.4-0.68-0.92-1.26-1.57-1.74c-0.9-0.68-1.9-1.15-3.01-1.42c-1.11-0.27-2.27-0.28-3.46-0.05
		c-1.2,0.23-2.36,0.76-3.49,1.57c-0.32,0.25-0.6,0.54-0.85,0.87c-0.17,0.23-0.26,0.48-0.27,0.75c-0.02,0.61,0.09,1.15,0.32,1.62
		c0.23,0.46,0.62,0.85,1.17,1.15c0.58,0.3,1.18,0.51,1.79,0.65s1.25,0.22,1.89,0.25c2.36,0.12,4.71-0.06,7.05-0.52
		c2.22-0.46,4.36-1.2,6.4-2.19c1.11-0.55,2.12-1.25,3.01-2.12c0.56-0.51,0.99-1.13,1.27-1.84c0.5-1.43,0.31-2.74-0.57-3.93
		C235.45,42.63,234.98,42.19,234.43,41.83z M225.64,51.03c-0.05,0.1-0.12,0.17-0.22,0.2c-0.03,0.02-0.07,0.03-0.1,0.05
		s-0.07,0.02-0.1,0.02c-2.76,0.58-5.51,0.75-8.27,0.5c-0.08-0.02-0.18-0.03-0.3-0.05c-0.08-0.03-0.2-0.06-0.35-0.07
		c-0.02,0-0.04-0.01-0.07-0.02c-0.07-0.02-0.16-0.04-0.27-0.07c-0.12-0.03-0.24-0.07-0.37-0.1c-0.22-0.08-0.39-0.18-0.54-0.3
		c-0.14-0.12-0.19-0.22-0.14-0.3v-0.02c0.13-0.23,0.29-0.43,0.47-0.6c1.49-1.23,3.19-1.88,5.08-1.94c2.16-0.02,3.89,0.8,5.18,2.44
		C225.69,50.84,225.69,50.93,225.64,51.03z"/>
	<path class="st0" d="M262.96,28.89c-0.56-0.37-1.24-0.46-2.05-0.3c-0.1,0.02-0.21,0.04-0.32,0.07c-0.08,0.03-0.17,0.07-0.25,0.1
		c-0.78,0.2-1.52,0.49-2.23,0.87c-0.71,0.38-1.38,0.81-2.03,1.3c-3.64,2.71-6.33,6.13-8.09,10.29c-0.15,0.32-0.25,0.64-0.3,0.97
		c-0.03,0.33,0.07,0.63,0.32,0.9c0.03,0.05,0.09,0.08,0.17,0.09s0.16,0.01,0.24,0s0.12-0.04,0.14-0.09c0.03-0.05,0.07-0.11,0.1-0.17
		c0.12-0.17,0.22-0.34,0.3-0.52c0.96-2.13,2.18-4.03,3.66-5.73c1.48-1.69,3.18-3.2,5.11-4.51c0.88-0.61,1.83-1.1,2.84-1.47
		c0.53-0.18,1.08-0.32,1.64-0.42c0.1-0.02,0.2-0.03,0.3-0.05c0.15-0.03,0.29,0.02,0.44,0.16c0.14,0.14,0.22,0.29,0.24,0.46
		c0,0.8-0.15,1.58-0.45,2.34c-0.4,1.05-0.88,2.04-1.46,2.98c-0.57,0.94-1.21,1.84-1.91,2.7c-1.73,2.14-3.63,4.07-5.7,5.78
		s-4.31,3.24-6.7,4.58c-1.11,0.63-2.27,1.14-3.49,1.52c-0.91,0.3-1.83,0.41-2.76,0.32c-0.4-0.02-0.69-0.11-0.87-0.29
		c-0.18-0.17-0.28-0.51-0.3-1.01c-0.02-0.27,0-0.53,0.05-0.8c0.13-0.86,0.38-1.69,0.75-2.49c0.95-2.03,2.14-3.88,3.59-5.55
		c2.19-2.62,4.6-5.04,7.22-7.25c0.88-0.73,1.78-1.43,2.69-2.09c0.91-0.66,1.89-1.25,2.94-1.74c0.07-0.05,0.14-0.1,0.22-0.15
		c0.03-0.03,0.07-0.06,0.1-0.07c0.1-0.07,0.15-0.17,0.16-0.31s-0.03-0.28-0.11-0.41c-0.28-0.42-0.62-0.56-1.02-0.45
		c-0.08,0.03-0.16,0.07-0.22,0.1c-0.5,0.15-0.97,0.35-1.42,0.6c-1.1,0.66-2.16,1.37-3.19,2.12c-3.02,2.34-5.77,4.97-8.24,7.89
		c-1.33,1.53-2.47,3.18-3.41,4.96c-0.65,1.18-1.09,2.44-1.32,3.79c-0.18,1.25,0.08,2.39,0.8,3.44c0.5,0.76,1.21,1.2,2.14,1.3
		c0.18,0.02,0.37,0.03,0.55,0.05c0.08,0,0.17,0,0.25,0c0.81-0.02,1.61-0.14,2.39-0.37c1.21-0.4,2.37-0.9,3.49-1.52
		c4.48-2.51,8.41-5.7,11.78-9.59c0.7-0.81,1.35-1.66,1.97-2.53c0.61-0.87,1.16-1.79,1.64-2.75c0.5-1.03,0.86-2.11,1.1-3.24
		c0.15-0.81,0.06-1.59-0.27-2.34C263.91,29.74,263.51,29.26,262.96,28.89z"/>
	<path class="st0" d="M330.61,44.23c0.07-0.03,0.12-0.06,0.17-0.07c0.13-0.05,0.18-0.01,0.15,0.12c-0.05,0.13-0.1,0.27-0.15,0.4
		c-0.07,0.22-0.13,0.43-0.2,0.65c-0.07,0.2-0.07,0.39-0.02,0.57c0.08,0.32,0.21,0.61,0.39,0.88c0.17,0.27,0.42,0.5,0.73,0.68
		c0.18,0.08,0.39,0.12,0.62,0.1c0.03,0,0.07,0,0.1,0c0.1,0,0.17-0.05,0.22-0.14c0.05-0.09,0.06-0.18,0.02-0.26
		c-0.02-0.03-0.03-0.07-0.05-0.1c-0.03-0.08-0.08-0.17-0.15-0.25c-0.4-0.37-0.45-0.76-0.15-1.17c0.38-0.53,0.76-1.07,1.12-1.62
		c0.12-0.17,0.23-0.33,0.35-0.5c0.05-0.05,0.09-0.11,0.12-0.17c0.13-0.18,0.27-0.38,0.4-0.6c0.13-0.28,0.14-0.59,0.02-0.92
		c-0.17-0.42-0.42-0.71-0.76-0.87c-0.34-0.17-0.7-0.17-1.08,0c-0.03,0.02-0.07,0.02-0.1,0.02c-0.37,0.17-0.72,0.35-1.07,0.55
		c-1.23,0.8-2.46,1.61-3.69,2.44c-0.33,0.23-0.66,0.47-1,0.72c-0.22,0.15-0.43,0.3-0.65,0.45c0,0.02-0.01,0.02-0.04,0.02
		s-0.05,0-0.06,0c-0.03,0-0.06,0-0.07,0c-0.15,0.03-0.18-0.02-0.1-0.15c0.13-0.22,0.27-0.43,0.42-0.65c0.12-0.2,0.23-0.39,0.35-0.57
		c0.15-0.25,0.31-0.49,0.47-0.72c0.4-0.65,0.8-1.3,1.2-1.94c0.13-0.23,0.16-0.47,0.07-0.71c-0.08-0.24-0.26-0.44-0.52-0.61
		c-0.05-0.03-0.11-0.05-0.17-0.06c-0.07-0.01-0.12,0-0.17,0.01c-0.17,0.1-0.31,0.22-0.42,0.37c-0.99,1.36-1.97,2.73-2.96,4.09
		c-0.06,0.01-0.11,0-0.18,0.02c-0.33,0.07-1.32,0.75-2.98,2.05c-1.65,1.3-3.93,2.62-6.84,3.95c-0.08,0.02-0.15,0-0.21-0.05
		c-0.06-0.05-0.08-0.12-0.06-0.2c0.07-0.27,0.16-0.52,0.29-0.76c0.12-0.24,0.26-0.47,0.41-0.68c0.02-0.02,0.03-0.04,0.05-0.07
		c0.91-1.43,1.97-2.75,3.16-3.96c0.07-0.07,0.13-0.12,0.2-0.17c0.17-0.15,0.32-0.31,0.45-0.47c0.13-0.18,0.16-0.38,0.07-0.6
		c-0.12-0.28-0.3-0.52-0.55-0.72c-0.1-0.07-0.2-0.1-0.3-0.1c-0.1,0-0.19,0.03-0.27,0.1c-0.2,0.15-0.39,0.32-0.57,0.5
		c-1.1,1-2.26,1.88-3.5,2.66s-2.54,1.46-3.9,2.04c-0.61,0.25-1.25,0.46-1.89,0.65c-0.05,0.02-0.15,0.03-0.29,0.04s-0.29,0.01-0.44,0
		c-0.15-0.01-0.27-0.04-0.36-0.09s-0.1-0.13-0.04-0.25c0.4-0.75,0.93-1.39,1.61-1.93c0.67-0.54,1.41-0.99,2.22-1.36
		c0.81-0.37,1.61-0.66,2.43-0.9c0.53-0.15,0.96-0.22,1.28-0.22c0.32,0,0.61,0.02,0.86,0.05c0.23,0.03,0.49,0.06,0.77,0.07
		c0.07-0.03,0.12-0.12,0.16-0.25c0.04-0.13,0.04-0.29-0.01-0.46s-0.19-0.34-0.42-0.49c-0.4-0.3-0.83-0.48-1.3-0.55
		c-0.46-0.07-0.94-0.06-1.42,0.02c-1.26,0.13-2.44,0.49-3.55,1.08c-0.89,0.47-1.61,0.99-2.19,1.55c-0.41,0.2-0.95,0.46-1.63,0.81
		c-1.76,0.83-3.88,1.59-6.35,2.27c-2.59,0.63-4.37,0.95-5.33,0.95c-0.38,0-0.73-0.03-1.05-0.1c-0.35-0.12-0.52-0.33-0.52-0.65
		c0-0.27,0.19-0.69,0.57-1.27c0.13-0.18,0.35-0.45,0.65-0.8c0.65-0.6,1.07-0.94,1.27-1.02h0.07c0.32,0.18,0.73,0.27,1.25,0.27
		c0.46,0,1.09-0.08,1.87-0.25c0.61-0.17,1.11-0.33,1.49-0.5c0.53-0.23,1.06-0.51,1.59-0.85c0.37-0.28,0.55-0.61,0.55-0.97v-0.1
		c0-0.33-0.15-0.7-0.45-1.1c-0.25-0.27-0.47-0.44-0.67-0.52c-0.28-0.12-0.53-0.17-0.75-0.17c-1.18,0-2.62,0.45-4.33,1.34
		c-0.76,0.43-1.52,0.97-2.27,1.62c-0.28,0.24-0.5,0.46-0.69,0.66c-0.28,0.06-0.62,0.15-1.03,0.31c-0.98,0.38-2.09,0.89-3.34,1.53
		s-2.37,1.25-3.39,1.83c-1.01,0.58-1.69,0.96-2.02,1.15c-0.12,0.07-0.26,0.12-0.42,0.15s-0.31,0.04-0.44,0.02
		c-0.12-0.02-0.2-0.06-0.21-0.12c-0.02-0.1-0.03-0.2-0.04-0.29s0-0.17,0.04-0.24c0.22-0.51,0.44-1.02,0.67-1.52
		c0.13-0.32,0.27-0.63,0.42-0.95c0.03-0.07,0.07-0.14,0.1-0.22c0.22-0.46,0.42-0.94,0.6-1.42c0.17-0.58-0.07-1.13-0.72-1.64
		c-0.38-0.28-0.69-0.32-0.92-0.12c-0.42,0.42-0.81,0.84-1.2,1.27c-1.49,1.59-3.24,2.91-5.23,3.96c-0.71,0.42-1.53,0.69-2.44,0.82
		c-0.15,0.02-0.31-0.05-0.47-0.19c-0.17-0.14-0.27-0.29-0.3-0.46c0.05-0.58,0.22-1.09,0.52-1.53c0.3-0.44,0.63-0.85,1-1.23
		c0.23-0.25,0.45-0.49,0.65-0.73c0.2-0.24,0.35-0.5,0.45-0.78c0.05-0.17-0.01-0.35-0.17-0.55c-0.17-0.2-0.36-0.38-0.57-0.55
		c-0.1-0.05-0.28-0.02-0.54,0.09c-0.26,0.11-0.51,0.23-0.77,0.37c-0.26,0.14-0.41,0.24-0.46,0.31c-0.12,0.12-0.22,0.23-0.32,0.35
		c-0.33,0.33-0.62,0.68-0.87,1.05c-0.25,0.37-0.39,0.8-0.42,1.3c-0.05,1.01,0.31,1.98,1.07,2.89c0.71,0.85,1.54,1.23,2.47,1.15
		c0.8-0.08,1.51-0.29,2.14-0.62c0.38-0.22,0.76-0.43,1.12-0.65c0.46-0.25,0.94-0.51,1.42-0.77c0.03-0.02,0.08-0.02,0.15-0.01
		s0.12,0.03,0.17,0.06c0.03,0.02,0.06,0.05,0.07,0.09s0.03,0.08,0.04,0.12s0.01,0.08,0.01,0.11c-0.25,0.51-0.5,1.04-0.75,1.57
		c-0.23,0.5-0.46,1-0.7,1.49c-0.27,0.53-0.64,0.98-1.12,1.34c-1.16,0.9-2.31,1.82-3.44,2.76c-1.69,1.38-3.2,2.92-4.53,4.63
		c-0.63,0.85-1.22,1.72-1.77,2.61c-0.03,0.05-0.07,0.11-0.1,0.17c-0.35,0.55-0.57,1.17-0.67,1.87c-0.07,0.66,0.16,1.3,0.67,1.92
		c0.32,0.37,0.66,0.61,1.03,0.73c0.37,0.12,0.72,0.1,1.03-0.06c0.43-0.23,0.82-0.5,1.17-0.8c0.6-0.5,1.14-1.04,1.62-1.62
		c1.05-1.28,2.03-2.59,2.96-3.93c0.63-0.91,1.24-1.85,1.83-2.8c0.59-0.95,1.13-1.94,1.63-2.95c0.55-1.13,1.34-2.04,2.39-2.74
		c2.21-1.51,4.47-2.94,6.8-4.28c1.25-0.71,2.5-1.42,3.74-2.13c-0.06,0.25-0.1,0.5-0.1,0.76v0.05c0,0.55,0.17,1.1,0.5,1.64
		c0.18,0.3,0.42,0.56,0.72,0.8c0.51,0.43,1.28,0.65,2.29,0.65h0.07c0.63,0,1.34-0.07,2.14-0.22c0.18,0,0.92-0.18,2.22-0.55
		c0.93-0.27,1.8-0.56,2.62-0.87c1.56-0.59,2.98-1.25,4.27-1.97c0,0.02-0.01,0.04-0.01,0.05c-0.2,0.42-0.24,0.85-0.14,1.3
		c0.11,0.45,0.32,0.83,0.65,1.15c0.32,0.32,0.73,0.48,1.21,0.5c0.63,0.02,1.25-0.07,1.84-0.25c0.91-0.32,1.81-0.69,2.69-1.12
		c0.3-0.15,0.61-0.29,0.92-0.42c0.02,0,0.03-0.01,0.05-0.02c0.02,0,0.04,0,0.07,0.01s0.06,0.02,0.07,0.04s0.03,0.04,0.05,0.06
		s0.02,0.05,0.02,0.06c-0.05,0.15-0.1,0.3-0.15,0.45c-0.08,0.23-0.16,0.47-0.22,0.72c-0.1,0.42-0.07,0.84,0.1,1.27
		c0.17,0.43,0.43,0.77,0.8,1.02c0.27,0.18,0.56,0.27,0.9,0.27c0.25,0.02,0.49-0.01,0.73-0.07c0.24-0.07,0.48-0.13,0.71-0.2
		c0.02-0.02,0.03-0.02,0.05-0.02c0.25-0.08,0.99-0.56,2.23-1.43c0.88-0.62,2.25-1.66,4.08-3.1c-0.75,1.04-1.5,2.07-2.25,3.12
		c-0.23,0.28-0.43,0.59-0.6,0.92c-0.2,0.43-0.12,0.85,0.22,1.25c0.15,0.18,0.32,0.3,0.51,0.35s0.36,0.02,0.51-0.1
		c0.5-0.45,0.99-0.9,1.47-1.37c2.59-2.46,5.36-4.69,8.32-6.7C330.29,44.38,330.45,44.3,330.61,44.23z M296.64,43.16
		c1.39-0.58,2.33-0.88,2.81-0.9c0.12,0.02,0.17,0.04,0.17,0.07c0,0.1-0.13,0.26-0.4,0.47c-0.25,0.17-0.65,0.36-1.2,0.57
		c-1.13,0.38-1.91,0.57-2.34,0.57c-0.1,0-0.15-0.02-0.15-0.07C295.55,43.75,295.91,43.51,296.64,43.16z M268.33,64.95
		c-0.02,0-0.02,0.01-0.02,0.02c-0.08,0.1-0.18,0.18-0.3,0.25c-0.12,0.07-0.26,0.08-0.42,0.05c-0.02-0.02-0.04-0.03-0.07-0.05
		s-0.06-0.04-0.09-0.06c-0.02-0.02-0.04-0.05-0.04-0.06c0.02-0.07,0.02-0.13,0.02-0.2c0.02-0.25,0.07-0.46,0.17-0.62
		c0.12-0.15,0.22-0.29,0.32-0.42c0.76-1.13,1.58-2.23,2.44-3.31c0.51-0.6,1.07-1.17,1.67-1.72c0.23-0.22,0.46-0.44,0.67-0.67
		c0.13-0.12,0.86-0.86,2.19-2.24C272.3,60.05,270.12,63.06,268.33,64.95z"/>
	<path class="st0" d="M346.38,44.18c-1.01,0.33-2.28,0.88-3.81,1.64c-1.08,0.53-2.12,1-3.11,1.42c-1,0.42-1.78,0.64-2.37,0.68
		s-0.8-0.25-0.65-0.88c0.02-0.05,0.02-0.11,0.02-0.17c0.22-0.85,0.47-1.69,0.77-2.52c0.68-1.78,1.93-3,3.74-3.66
		c0.2-0.07,0.4-0.12,0.6-0.15c0.13-0.03,0.26-0.07,0.37-0.1s0.2-0.12,0.24-0.26s0.04-0.28-0.01-0.41c-0.13-0.25-0.32-0.43-0.57-0.55
		c-0.38-0.17-0.77-0.2-1.17-0.1c-1.73,0.4-3.04,1.36-3.93,2.89c-0.5,0.88-0.86,1.81-1.1,2.79c-0.3,1.1-0.56,2.2-0.8,3.31
		c-0.08,0.35-0.21,0.65-0.37,0.91s-0.42,0.47-0.77,0.64c-0.58,0.28-1.15,0.59-1.69,0.92c-0.02,0-0.04,0.01-0.07,0.02
		c-0.17,0.1-0.34,0.2-0.52,0.3c-1.1,0.63-2.18,1.29-3.26,1.97c-0.55,0.37-1.07,0.77-1.57,1.22c-0.25,0.25-0.33,0.56-0.25,0.95
		c0.22,0.9,0.76,1.41,1.62,1.54c0.22,0.03,0.44,0.06,0.67,0.07c0.1,0,0.2,0,0.3,0c0.07,0,0.13,0,0.2,0c0.61-0.02,1.22-0.1,1.82-0.25
		c1-0.28,1.83-0.74,2.52-1.38s1.23-1.43,1.64-2.38c0.17-0.38,0.31-0.78,0.42-1.2c0.03-0.1,0.07-0.21,0.12-0.32
		c0.08-0.27,0.25-0.46,0.5-0.6c0.12-0.05,0.24-0.11,0.37-0.17c0.45-0.27,0.91-0.51,1.39-0.75c0.42-0.2,1.31-0.64,2.69-1.31
		c1.38-0.67,2.75-1.36,4.11-2.05s2.21-1.18,2.54-1.44C347.02,44.28,346.81,44.07,346.38,44.18z M332.8,52.63
		c-0.02,0.07-0.03,0.12-0.05,0.17c-0.58,0.83-1.34,1.43-2.29,1.79c-0.05,0.02-0.1,0.03-0.15,0.05c-0.25,0.12-0.5,0.21-0.76,0.29
		c-0.26,0.07-0.54,0.1-0.83,0.06c0-0.02-0.01-0.02-0.02-0.02c-0.03-0.02-0.06-0.03-0.07-0.04s-0.03-0.02-0.05-0.04
		c0-0.02,0-0.04,0-0.07s0.01-0.06,0.02-0.07l0.02-0.02c0.07-0.1,0.16-0.18,0.27-0.25c0.81-0.48,1.64-0.96,2.47-1.44
		c0.37-0.22,0.73-0.43,1.1-0.65c0.07-0.03,0.13-0.05,0.2-0.04s0.12,0.05,0.15,0.11C332.82,52.5,332.82,52.56,332.8,52.63z"/>
</g>
</svg>
