<?xml version="1.0" encoding="utf-8"?>
<!-- Generator: Adobe Illustrator 22.1.0, SVG Export Plug-In . SVG Version: 6.00 Build 0)  -->
<svg version="1.1" id="Layer_1" xmlns="http://www.w3.org/2000/svg" xmlns:xlink="http://www.w3.org/1999/xlink" x="0px" y="0px"
	 viewBox="0 0 575 132.3" style="enable-background:new 0 0 575 132.3;" xml:space="preserve">
<style type="text/css">
	.st0{clip-path:url(#SVGID_2_);fill:#4B5053;}
	.st1{clip-path:url(#SVGID_2_);fill:#A80533;}
	.st2{clip-path:url(#SVGID_2_);fill:#BAC2C7;}
	.st3{fill:#4B5053;}
	.st4{clip-path:url(#SVGID_4_);fill:#4B5053;}
	.st5{clip-path:url(#SVGID_6_);fill:#4B5053;}
	.st6{clip-path:url(#SVGID_8_);fill:#4B5053;}
	.st7{clip-path:url(#SVGID_10_);fill:#4B5053;}
	.st8{clip-path:url(#SVGID_12_);fill:#4B5053;}
	.st9{clip-path:url(#SVGID_14_);fill:#4B5053;}
	.st10{clip-path:url(#SVGID_16_);fill:#4B5053;}
	.st11{clip-path:url(#SVGID_18_);fill:#4B5053;}
	.st12{clip-path:url(#SVGID_20_);fill:#4B5053;}
	.st13{clip-path:url(#SVGID_22_);fill:#4B5053;}
	.st14{clip-path:url(#SVGID_24_);fill:#4B5053;}
	.st15{clip-path:url(#SVGID_26_);fill:#4B5053;}
	.st16{clip-path:url(#SVGID_28_);fill:#4B5053;}
	.st17{clip-path:url(#SVGID_30_);fill:#4B5053;}
</style>
<g>
	<defs>
		<rect id="SVGID_1_" width="575" height="132.3"/>
	</defs>
	<clipPath id="SVGID_2_">
		<use xlink:href="#SVGID_1_"  style="overflow:visible;"/>
	</clipPath>
	<path class="st0" d="M114.4,10.2c0,2.2-2,10.7-6,25.4c-1.4,5.3-2.6,10.9-3.5,16.7c-1.1-0.3-1.8-0.8-2.2-1.4
		c-0.2-0.4-0.3-1.1-0.3-2.1c0-2.3,0.4-4.9,1.3-8c0.7-2.5,1.3-4.9,2-7.4c0.4-2,1.5-6.2,3.2-12.8c1-3.7,1.4-6.3,1.4-8.1
		c0-1.2-0.3-2.2-1-3.1c-0.7-0.9-1.5-1.4-2.4-1.4c-1.7,0-4.6,1.8-8.8,5.3c-4.2,3.6-8.3,7.7-12.2,12.4c-3.3,4-6.6,7.9-10,11.9
		c-2.8,3.4-5.4,6.7-7.6,9.9c-2.5,3.5-4,5.6-4.6,6.3c-1,1.2-1.9,1.9-2.5,1.9c-0.4,0-0.6-0.2-0.6-0.6c0-0.8,1.8-3.6,5.3-8.6
		c6.8-9.6,11.5-16.9,14.3-22.1c2.6-5,3.9-9.3,3.9-12.7c0-2.8-0.8-5-2.4-6.6c-1.4-1.4-3.2-2.2-5.3-2.2c-3.2,0-7.1,1.2-11.8,3.5
		c-4,2-7.2,4.2-9.5,6.5c-0.7,0.7-2.1,2.2-4.2,4.5c-1.3,1.4-2.1,2.1-2.5,2.1c-0.2,0-0.4-0.2-0.4-0.6c0-0.4,2-2.7,6.1-6.7
		c3.6-3.6,7.7-6.5,12.2-8.8C70.9,1.1,74.9,0,78.5,0c2.7,0,5,0.9,6.6,2.6c1.7,1.7,2.5,3.9,2.5,6.7c0,2.5-0.5,5.1-1.4,7.7
		c-0.9,2.6-2.7,6.4-5.3,11.2c4.4-4.6,8.8-9.1,13.3-13.7c6.4-6.2,11.6-9.2,15.6-9.2c1.3,0,2.4,0.5,3.3,1.4
		C113.9,7.5,114.4,8.7,114.4,10.2"/>
	<path class="st0" d="M125,43.9c0-0.8-0.4-1.2-1.2-1.2c-1,0-1.8,0.4-2.6,1.3c-0.8,0.9-1.2,1.9-1.2,2.9c0,1.6,0.3,2.7,0.9,3.2
		C123.7,48,125,45.9,125,43.9 M119.9,51.3c-0.9-0.9-1.3-2.1-1.3-3.5c0-2,0.4-3.3,1.2-4.1c-5.3,2.5-8,5-8,7.7c0,1.6,0.7,2.5,2,2.5
		C115.7,53.9,117.8,53,119.9,51.3 M139.6,42.7c0,0.3-0.1,0.6-0.3,0.8c-1.6,2-4.1,4.1-7.4,6.3c-3.6,2.5-6.2,3.8-8,3.8
		c-1.3,0-2.3-0.4-3.2-1.3c-0.4,0.6-1.4,1.4-3,2.2c-2,1-3.8,1.5-5.3,1.5c-2.3,0-3.5-0.9-3.5-2.7c0-2.5,1.7-5.1,5.2-8.1
		c3.4-2.7,6.2-4.1,8.5-4.1s3.5,1.1,3.5,3.2c0,2.4-1.3,4.7-4,7c0.6,0.6,1.3,0.9,2.2,0.9c1.4,0,3.9-1.2,7.4-3.7c3-2.1,5.4-4.2,7.4-6.2
		c0.1-0.1,0.2-0.2,0.4-0.1C139.5,42.4,139.6,42.5,139.6,42.7"/>
	<path class="st0" d="M164.1,42.6c0,0.3-0.1,0.5-0.3,0.7c-4.7,3.9-8,6.5-9.9,7.8c-4.8,3.2-8.9,4.8-12.5,4.8c-1,0-1.8-0.4-2.6-1.2
		c-0.8-0.8-1.2-1.6-1.2-2.6c0-0.9,0.6-2,1.9-3.5c1.2-1.2,2.3-2.4,3.4-3.7c-0.9,0-1.8,0.1-2.9,0.3c-1.1,0.2-1.9,0.3-2.6,0.3h-0.2
		c-5,4.2-9,7-12.3,8.4c-0.8,0-1.2-0.1-1.2-0.4c0-0.3,0.2-0.7,0.6-1.2c2.5-1,6.4-3.4,11.5-7.3c-0.3-0.3-0.5-0.7-0.5-1
		c0-0.9,0.8-2.2,2.3-3.8c1.5-1.6,2.8-2.4,3.7-2.4c0.8,0,1.2,0.3,1.2,0.9c0,1.1-0.7,2.3-2.2,3.6c1.9-0.4,3.1-0.6,3.7-0.6
		c1.3,0,2,0.5,2,1.4c0,1-0.9,2.4-2.8,4.1c-1.9,1.8-2.9,3.1-2.9,4.1c0,0.7,0.3,1.3,0.8,1.8c0.5,0.5,1.1,0.8,1.8,0.8
		c2.6,0,6.4-1.6,11.1-4.7c1.2-0.8,4.3-3.1,9.3-6.9c0.1-0.1,0.3-0.1,0.4-0.1C164,42.3,164.1,42.4,164.1,42.6"/>
	<path class="st0" d="M197.5,28c0,0.9-0.9,1.5-2.6,1.7h-3.2h-14.1c-6,6.3-9.3,9.8-9.7,10.3c-4.5,5.1-6.7,8.8-6.7,11
		c0,1.4,0.9,2.2,2.8,2.2c2.5,0,5.8-1.4,10-4.3c2.8-2.1,5.7-4.2,8.5-6.4c0.1-0.1,0.3-0.1,0.4-0.1c0.2,0,0.3,0.2,0.3,0.4
		c0,0.3-0.1,0.5-0.3,0.7c-4.6,3.8-7.8,6.4-9.7,7.6c-4.4,3.1-8.1,4.6-11,4.6c-1.1,0-2-0.4-2.7-1.2c-0.7-0.8-1-1.8-1-3
		c0-2.6,2.3-6.5,6.8-11.7c3.3-3.4,6.5-6.7,9.7-10.1L150.9,29c-0.6,0-0.8-0.4-0.6-1.2c0.1-0.4,0.6-0.6,1.4-0.6h25.7l6-5.8
		c0.3-0.3,0.9-0.5,1.7-0.5c0.2,0,0.5,0.1,0.6,0.4c0.1,0.3,0.1,0.6,0,0.7l-5.8,5.2L197.5,28z"/>
	<path class="st0" d="M217.8,10.4c0-1.3-0.7-1.9-2.2-1.9c-1.9,0-4.6,1.7-8.1,5c-2.2,2.2-5.6,5.9-10.1,11.3
		c-4.7,5.6-7.9,9.4-9.7,11.5c-2.9,3.7-4.4,6.1-4.7,7.1c2-0.3,5.9-2.6,11.6-6.9c6-4.4,11.1-8.9,15.5-13.6
		C215.2,17.4,217.8,13.3,217.8,10.4 M220.8,9.7c0,1.9-2.1,5.3-6.3,10.2c-7.6,8.8-15.3,15.6-23.1,20.1c-1.3,0.9-2.6,1.7-4,2.5
		c-1.5,0.9-3.5,1.9-5.9,2.8l-3.8,5.6c0.8-0.5,4.6-3,11.4-7.5c2.5-1.6,4.1-2.5,5-2.5c0.6,0,0.9,0.3,0.9,1c0,0.2-0.6,1.2-1.8,2.8
		c-1.2,1.7-1.8,3-1.8,4.1c0,0.9,0.1,1.5,0.4,1.9c0.3,0.5,1.1,0.8,2.4,0.8c1.2,0,4.3-1.8,9.3-5.5l5.2-3.8c0.2,0,0.4,0.2,0.4,0.6
		c0,0.2-0.5,0.7-1.5,1.5c-1.6,1.3-2.7,2.2-3.1,2.7c-1.4,1.3-3.1,2.6-5,3.8c-2.9,1.8-5.3,2.7-7.2,2.7c-2.6,0-4-1.2-4-3.5
		c0-0.8,0.2-2.2,0.5-4.3c-0.3,0-0.8,0.2-1.5,0.5c-0.4,0.2-2.9,2.1-7.6,5.6c-2.6,1.9-4.3,2.9-5,2.9c-0.4,0-0.6-0.2-0.6-0.7
		c0-0.8,0.8-2.3,2.5-4.6c2.9-4,4.6-6.4,5.2-7.3c4.1-6.4,10-13.8,17.7-22.1c8.5-9.2,14.2-13.8,17.2-13.8c1.1,0,2.1,0.3,3,0.9
		C220.4,7.9,220.8,8.7,220.8,9.7"/>
	<path class="st0" d="M227.9,44c0-1.3-0.4-1.9-1.2-1.9c-1.5,0-2.3,0.9-2.3,2.8c0,1.4,0.3,2.7,0.9,3.8c1.1-1.3,1.7-2,1.8-2.2
		C227.6,45.7,227.9,44.9,227.9,44 M246.4,42.7c0,0.3-0.1,0.6-0.3,0.8c-1.5,1.8-3.8,3.7-6.6,5.8c-4,2.8-7.3,4.3-10,4.3
		c-1.3,0-2.8-0.9-4.5-2.7c-3.4,3.4-6.3,5.1-8.5,5.1c-0.8,0-1.5-0.5-2.3-1.4c-0.7-1-1.1-2.1-1.1-3.3c0-1,0.3-2,0.8-2.9
		c-1.7,1.6-3.8,3.1-6.2,4.4c-2.4,1.3-4.2,2-5.3,2c-0.8,0-1.2-0.1-1.4-0.4c-0.2-0.2-0.3-0.8-0.3-1.7c0-1.6,0.9-3.4,2.6-5.3
		c1.7-1.7,3.5-3.5,5.2-5.2c0.8-0.9,1.7-1.3,2.6-1.3c0.9,0,1.4,0.6,1.4,1.7c0,0.1-0.3,0.2-0.9,0.4c-0.6,0.2-1,0.3-1.2,0.4
		c-4.6,3.4-6.9,6-6.9,7.9c0,0.5,0.3,0.7,1,0.7c1.8,0,6.5-3,14-9c0.2-0.2,0.5-0.3,0.6-0.3c0.3,0,0.5,0.3,0.5,0.8
		c0-0.1-0.6,0.6-1.7,2.2c-1.2,1.6-1.7,3.2-1.7,4.9c0,1.8,0.9,2.7,2.7,2.7c0.9,0,2.7-1.2,5.3-3.5c-0.8-1.1-1.2-2.6-1.2-4.5
		c0-1.2,0.3-2.2,1-3c0.6-0.9,1.5-1.3,2.5-1.3c1.7,0,2.6,1,2.6,3c0,2.2-0.9,4.2-2.7,6.1c1.2,1.5,2.3,2.3,3.4,2.3c2,0,4.8-1.2,8.4-3.5
		c3.4-2.2,5.9-4.3,7.6-6.3c0.1-0.1,0.2-0.2,0.4-0.1C246.3,42.4,246.4,42.5,246.4,42.7"/>
	<path class="st0" d="M243.5,43c0-0.3-0.3-0.5-0.8-0.5c-0.8,0-1.8,0.7-3,2c-1.2,1.3-1.9,2.5-1.9,3.4c0.2,0,0.6-0.2,1.2-0.4
		C242.1,45.8,243.5,44.2,243.5,43 M261.4,42.7c0,0.3-0.1,0.5-0.3,0.7c-4.7,3.9-7.9,6.5-9.7,7.6c-4.6,3.1-8.6,4.6-12,4.6
		c-3.1,0-4.7-1.6-4.7-4.7c0-2.1,1.2-4.3,3.5-6.9c2.3-2.5,4.3-3.8,6.1-3.8c0.5,0,1,0.2,1.5,0.6c0.5,0.4,0.7,0.9,0.7,1.4
		c0,0.8-0.4,1.6-1.2,2.3c-0.8,0.7-1.6,1.4-2.4,2.1c-1.4,1.2-3.1,2.3-5,3.2c-0.1,1.2,0.3,2.1,1.3,2.7c0.7,0.5,1.5,0.7,2.4,0.7
		c2.4,0,5.8-1.5,10.3-4.4c1-0.6,3.9-2.8,8.9-6.5c0.1-0.1,0.3-0.1,0.4-0.1C261.3,42.4,261.4,42.5,261.4,42.7"/>
	<path class="st0" d="M263.7,45.7c0-1.1-0.6-1.7-1.7-1.7c-0.6,0-1,0-1.3,0.1c-3.4,2.9-6.3,5.2-8.7,6.9c0.2,0,0.4,0,0.6,0.1
		c1.7,1,3,1.6,4,1.6c1.9,0,3.7-0.9,5.2-2.6C263,48.5,263.7,47,263.7,45.7 M281.8,42.7c0,0.3-0.1,0.5-0.3,0.7
		c-5.2,4.3-8.3,6.9-9.4,7.6c-4.7,3-9.7,4.5-14.9,4.5c-1.6,0-2.9-0.3-4-1c-0.4-0.2-1.2-0.9-2.4-2.1c0-0.3,0-0.5,0.1-0.7
		c-1.5,0.9-3,1.6-4.3,2.2c-0.8,0-1.2-0.1-1.2-0.4c0-0.3,0.2-0.7,0.6-1.2c4.2-2,8.6-4.9,13.3-8.7c0-0.1,0.1-0.2,0.1-0.2
		c1.2-1.1,2.6-1.6,4-1.6c2.2,0,3.2,1,3.2,3c0,1.3-0.7,2.8-2,4.7c-1.3,1.8-2.5,3-3.6,3.6c2.7,0,6.4-1.4,10.9-4.3c2-1.2,5-3.3,9-6.3
		c0.1-0.1,0.3-0.1,0.4-0.1C281.7,42.4,281.8,42.5,281.8,42.7"/>
	<path class="st0" d="M315.2,28c0,0.9-0.9,1.5-2.6,1.7h-3.2h-14.1c-6,6.3-9.3,9.8-9.7,10.3c-4.5,5.1-6.7,8.8-6.7,11
		c0,1.4,0.9,2.2,2.8,2.2c2.5,0,5.8-1.4,10-4.3c2.8-2.1,5.7-4.2,8.5-6.4c0.1-0.1,0.3-0.1,0.4-0.1c0.2,0,0.3,0.2,0.3,0.4
		c0,0.3-0.1,0.5-0.3,0.7c-4.6,3.8-7.8,6.4-9.7,7.6c-4.4,3.1-8.1,4.6-11,4.6c-1.1,0-2-0.4-2.7-1.2c-0.7-0.8-1-1.8-1-3
		c0-2.6,2.3-6.5,6.8-11.7c3.3-3.4,6.5-6.7,9.7-10.1L268.6,29c-0.6,0-0.8-0.4-0.6-1.2c0.1-0.4,0.6-0.6,1.4-0.6H295l6-5.8
		c0.3-0.3,0.9-0.5,1.7-0.5c0.2,0,0.5,0.1,0.6,0.4c0.1,0.3,0.1,0.6,0,0.7l-5.8,5.2L315.2,28z"/>
	<path class="st1" d="M58.9,93l-2.7,11.1c0,2-1.6,2.3-4.1,3.1c-3.4,1.2-9.6,2.7-17.4,2.7C16.5,109.9,0,101.2,0,77.3
		c0-13.7,11.7-31.9,35.6-31.9c8.6,0,12.7,1.6,17.1,3c2.5,0.8,3.5,2,3.5,3.5v11.5h-2.3c-0.3-7.1-4.8-14.9-19-14.9
		c-16.6,0-24.7,12-24.8,28c-0.1,17.7,8,30.2,26.2,30.2c11.8,0,17.4-6.8,20.2-13.8H58.9z"/>
	<path class="st1" d="M75.6,87.5h5.2c5.4,0,7.9-4.1,7.9-11.2c0-6.8-3.7-9.2-8.3-9.2h-4.8V87.5z M64.2,65.2h18.1
		c6.3,0,12.6,3.3,12.6,10.6c0,6.4-3.9,10.8-8.7,12.7l6.1,9.3c3.1,4.5,6.6,8.9,8.8,10.2v0.8h-6.4c-3.7,0-5.7-6.8-13.2-19.3h-5.9V101
		c0,5.8-0.2,5.5,5.4,6.2v1.6H64.2v-1.6c5.6-0.7,5.4-0.4,5.4-6.2V73c0-5.8,0.2-5.5-5.4-6.2V65.2z"/>
	<path class="st1" d="M114.9,101c0,5.8-0.2,5.5,5.4,6.2v1.6h-16.8v-1.6c5.6-0.7,5.4-0.4,5.4-6.2V73c0-5.8,0.2-5.5-5.4-6.2v-1.6h16.8
		v1.6c-5.6,0.7-5.4,0.4-5.4,6.2V101z"/>
	<path class="st1" d="M133.9,75.2h-0.1v25.2c0,1.3,0.2,2.4,0.3,3.4c0.3,2.2,2.4,3.1,5.4,3.4v1.6h-14v-1.6c2.9-0.3,5-1.2,5.4-3.4
		c0.1-1,0.4-2.1,0.4-3.4V72.2c-1.2-2.9-4.3-5.4-7.3-5.4v-1.6h11.8L153,100L171,65.2h10.1v1.6c-4.6,0-6.2,2.5-6.2,6.4V101
		c0,5.8-0.2,5.5,5.4,6.2v1.6h-16.8v-1.6c5.6-0.7,5.4-0.4,5.4-6.2V74.8h-0.1l-17,34.3h-1L133.9,75.2z"/>
	<path class="st1" d="M206.9,74.5c-0.5-4.4-2.9-7.9-7.9-7.9c-3.6,0-6.9,1.9-6.9,6.5c0,4.4,4.4,7,10.6,11.7c6.6,4.9,8.7,8.1,8.7,13.3
		c0,7.4-7.6,11.5-15.1,11.5c-4,0-7.4-0.7-10.7-2c-0.2-0.1-0.4-0.4-0.4-0.9v-9h1.6c0.7,6.9,5.2,9.7,10,9.7c4.4,0,8-3.4,8-7.9
		c0-4.1-2.2-7.4-11.5-13.5c-3.4-2.2-7.5-4.7-7.5-11.5c0-5.6,6.2-10,13.4-10c2.7,0,6.2,0.3,8.7,1.2c0.4,0.1,0.4,0.4,0.4,0.7v8.2
		H206.9z"/>
	<path class="st1" d="M254.7,87.6c0-14.9-8-20.9-15.6-20.9c-10.6,0-15,9.5-15,18c0,15.1,7.7,22.8,15.8,22.8
		C251.4,107.4,254.7,95.9,254.7,87.6 M217,87.8c0-13.5,10.5-23.4,23.4-23.4c13.5,0,21.4,11.7,21.4,21.3c0,13.2-9.8,23.9-23.6,23.9
		C226.2,109.6,217,99.9,217,87.8"/>
	<path class="st1" d="M305.6,108.8c-9.9-11.7-20.2-24-30.4-36v27.5c0,1.3,0.2,2.4,0.4,3.4c0.3,2.2,2.4,3.1,6.5,3.4v1.6h-15.3v-1.6
		c3-0.3,5-1.2,5.4-3.4c0.1-1,0.4-2.1,0.4-3.4V71c-1.7-2.2-3.7-4.2-7.2-4.2v-1.6h11.3c9.3,11.3,18.9,22.7,28.2,34h0.1V73.6
		c0-1.3-0.3-2.4-0.4-3.4c-0.3-2.2-2.4-3.1-6.5-3.4v-1.6h15.3v1.6c-2.9,0.3-5,1.2-5.4,3.4c-0.1,1-0.4,2.1-0.4,3.4v35.2H305.6z"/>
	<path class="st2" d="M337.4,76.8c-7.5,2.8-8.7,10.1-8.7,14c0,8.1,5.3,15.5,14.9,15.5c8.4,0,13.7-4.7,16.7-8.5L337.4,76.8z
		 M384.3,68.2l-4.3,2.3h-10.1c0.4,5.3,0.7,15.7-3.4,23c4.3,4.1,12.7,11.4,16.1,13.6v1.7h-10.4c-3.6-3.3-6.4-5.8-9.4-8.9
		c-4.3,5.5-11.2,10-21.2,10c-15.6,0-22.4-9.3-22.4-18.3c0-8.2,5.3-15.1,16.6-16.5c-5.2-5-10.1-8.7-10.1-15.6
		c0-7.7,5.4-14.1,16.3-14.1c5.3,0,9.6,1.6,11.6,3.6v8.2h-2.3c-1.8-6.2-4.7-9.3-10.1-9.3c-3.6,0-7.9,2.8-7.9,8.5
		c0,3.9,1.7,7.8,9.6,15.3L364,91.6c3-6.3,3.4-16.6,0.1-21.1h-10.5v-1.8l4.5-2.3h26.3V68.2z"/>
	<path class="st0" d="M391.2,77.3c0-13.7,11.6-31.9,35.6-31.9c8.6,0,12.7,1.6,17.1,3c2.5,0.8,3.5,2,3.5,3.5v11.5h-2.3
		c-0.3-7.1-4.8-14.9-19-14.9c-18.6,0-24.7,12.8-24.8,28c-0.1,14.1,7,30.2,25.1,30.2c11.1,0,12.1-4.1,12.1-11v-5.4
		c0-8.3,0.4-7.8-9.4-8.8v-2.3h25.7v2.3c-8,1-7.7,0.5-7.7,8.8v15.5c-5.7,2.2-13.2,4.1-21.3,4.1C407.7,109.9,391.2,101.2,391.2,77.3"
		/>
	<path class="st0" d="M471.7,87.5h5.2c5.4,0,7.9-4.1,7.9-11.2c0-6.8-3.7-9.2-8.3-9.2h-4.8V87.5z M460.3,65.2h18.1
		c6.3,0,12.6,3.3,12.6,10.6c0,6.4-3.9,10.8-8.7,12.7l6.1,9.3c3.1,4.5,6.6,8.9,8.8,10.2v0.8h-6.4c-3.7,0-5.7-6.8-13.2-19.3h-5.9V101
		c0,5.8-0.2,5.5,5.4,6.2v1.6h-16.8v-1.6c5.6-0.7,5.4-0.4,5.4-6.2V73c0-5.8,0.2-5.5-5.4-6.2V65.2z"/>
	<path class="st0" d="M524.2,92l-6.6-20.3h-0.1L510,92H524.2z M509.1,94.4l-2.9,8.4c-0.8,2.4,0.4,4.5,3.1,4.5v1.6H498v-1.6
		c1.7,0,3.5-1.1,4.5-3.1c2.7-5.5,10-25.9,15.1-39.6h3.5c4.2,12.5,10.6,31.7,12.7,37.3c1.4,3.5,2.4,5.5,5,5.5v1.6h-14.5v-1.6
		c3.9,0,4.3-2.1,3.3-4.8l-2.7-8H509.1z"/>
	<path class="st0" d="M547.3,107.2c5.6-0.7,5.4-0.4,5.4-6.2v-9.6l-9.6-19c-2.1-4.1-3.8-5.6-6.7-5.6v-1.6h15.9v1.6
		c-4.7,0-4.3,2.4-2.7,5.6l7.5,15.6l8.6-15.6c2.1-3.8,0.1-5.6-3.6-5.6v-1.6H575v1.6c-1.7,0-3.4,0.8-5.1,3.8l-10.4,18.9
		c-0.6,1.2-0.7,3-0.7,4.5v7c0,5.8-0.2,5.5,5.4,6.2v1.6h-16.8V107.2z"/>
	<path class="st0" d="M195.5,129.2c-0.3-1-0.6-1.9-1-3h0c-0.3,1.1-0.7,2-1,3H195.5z M195.3,124.8l2.8,7.4h-1.7l-0.7-2h-2.6l-0.8,2
		h-1.3l3-7.4H195.3z"/>
	<path class="st0" d="M212.8,132.2h-1.5v-5.8h0c-0.8,2.1-1.7,3.9-2.5,5.8H208c-0.8-1.9-1.6-3.7-2.4-5.8h0v5.8h-1.2v-7.4h1.8
		c0.8,1.8,2,4.7,2.3,5.7h0c0.3-1,1.7-3.9,2.5-5.7h1.7V132.2z"/>
	<path class="st0" d="M219.4,129.2c-0.3-1-0.6-1.9-1-3h0c-0.3,1.1-0.7,2-1,3H219.4z M219.2,124.8l2.8,7.4h-1.7l-0.7-2H217l-0.8,2
		h-1.3l3-7.4H219.2z"/>
	<path class="st0" d="M230.3,128.8v3.1c-0.8,0.3-1.6,0.5-2.5,0.5c-2.6,0-4.2-1.7-4.2-3.9c0-2,1.6-3.8,4.2-3.8c0.8,0,1.6,0.3,2.1,0.6
		l-0.5,0.9c-0.4-0.2-1-0.4-1.6-0.4c-1.6,0-2.7,1.1-2.7,2.8c0,1.8,1.3,2.8,2.5,2.8c0.4,0,0.7,0,1-0.2v-2.3H230.3z"/>
	<path class="st0" d="M236.9,129.2c-0.3-1-0.6-1.9-1-3h0c-0.3,1.1-0.7,2-1,3H236.9z M236.7,124.8l2.8,7.4h-1.7l-0.7-2h-2.6l-0.8,2
		h-1.3l3-7.4H236.7z"/>
</g>
<polygon class="st3" points="241.5,124.8 241.5,125.7 244.9,125.7 240.9,131.7 240.9,132.2 247,132.2 247,131.2 242.9,131.2 
	246.8,125.2 246.8,124.8 "/>
<rect x="249.3" y="124.8" class="st3" width="1.5" height="7.4"/>
<g>
	<defs>
		<rect id="SVGID_3_" width="575" height="132.3"/>
	</defs>
	<clipPath id="SVGID_4_">
		<use xlink:href="#SVGID_3_"  style="overflow:visible;"/>
	</clipPath>
	<path class="st4" d="M260.2,132.2h-1.1c-1.4-1.7-2.8-3.4-4.2-5.3h0v5.3h-1.2v-7.4h1.1c1.4,1.7,2.8,3.4,4.2,5.3h0v-5.3h1.2V132.2z"
		/>
</g>
<polygon class="st3" points="263.2,124.8 263.2,132.2 267.6,132.2 267.6,131.2 264.7,131.2 264.7,128.8 267.1,128.8 267.1,127.8 
	264.7,127.8 264.7,125.7 267.2,125.7 267.2,124.8 "/>
<g>
	<defs>
		<rect id="SVGID_5_" width="575" height="132.3"/>
	</defs>
	<clipPath id="SVGID_6_">
		<use xlink:href="#SVGID_5_"  style="overflow:visible;"/>
	</clipPath>
	<path class="st5" d="M279.8,128.4c0-1.4-0.6-2.7-2.1-2.7s-2.1,1.3-2.1,2.7c0,1.4,0.6,2.9,2.1,2.9
		C279.2,131.2,279.8,129.8,279.8,128.4 M274,128.4c0-2.1,1.6-3.7,3.7-3.7s3.7,1.7,3.7,3.7c0,2.2-1.4,3.9-3.7,3.9
		S274,130.6,274,128.4"/>
</g>
<polygon class="st3" points="283.9,124.8 283.9,132.2 285.4,132.2 285.4,129.2 287.8,129.2 287.8,128.2 285.4,128.2 285.4,125.7 
	287.9,125.7 287.9,124.8 "/>
<g>
	<defs>
		<rect id="SVGID_7_" width="575" height="132.3"/>
	</defs>
	<clipPath id="SVGID_8_">
		<use xlink:href="#SVGID_7_"  style="overflow:visible;"/>
	</clipPath>
	<path class="st6" d="M299.8,124.8c0.6,1.9,1.2,3.8,1.8,6h0c0.5-2.2,1-4.1,1.5-6.1l1.2,0.2l-2.1,7.3h-1.5c-0.6-1.8-1.1-3.5-1.6-5.5
		h0c-0.5,2-1.1,3.8-1.6,5.5h-1.5l-2.1-7.3l1.5-0.2c0.5,1.9,1,3.9,1.5,6.1h0c0.6-2.2,1.2-4.1,1.8-6H299.8z"/>
	<path class="st6" d="M309.7,129.2c-0.3-1-0.6-1.9-1-3h0c-0.3,1.1-0.7,2-1,3H309.7z M309.5,124.8l2.8,7.4h-1.7l-0.7-2h-2.6l-0.8,2
		h-1.3l3-7.4H309.5z"/>
	<path class="st6" d="M318.1,126c-0.3-0.2-0.8-0.4-1.2-0.4c-0.6,0-1,0.3-1,0.8c0,0.5,0.5,0.9,1.4,1.5c1,0.8,1.5,1.4,1.5,2.3
		c0,0.9-0.9,2-2.6,2c-0.8,0-1.6-0.2-2.2-0.7l0.5-0.8c0.4,0.3,0.8,0.6,1.5,0.6c0.6,0,1.2-0.3,1.2-1c0-0.8-1-1.4-1.6-1.8
		c-0.7-0.6-1.3-1-1.3-2c0-1,1-1.8,2.4-1.8c0.8,0,1.5,0.3,1.9,0.6L318.1,126z"/>
</g>
<polygon class="st3" points="321.5,124.8 321.5,132.2 323,132.2 323,128.6 326.1,128.6 326.1,132.2 327.6,132.2 327.6,124.8 
	326.1,124.8 326.1,127.6 323,127.6 323,124.8 "/>
<rect x="330.5" y="124.8" class="st3" width="1.5" height="7.4"/>
<g>
	<defs>
		<rect id="SVGID_9_" width="575" height="132.3"/>
	</defs>
	<clipPath id="SVGID_10_">
		<use xlink:href="#SVGID_9_"  style="overflow:visible;"/>
	</clipPath>
	<path class="st7" d="M341.5,132.2h-1.1c-1.4-1.7-2.8-3.4-4.2-5.3h0v5.3H335v-7.4h1.1c1.4,1.7,2.8,3.4,4.2,5.3h0v-5.3h1.2V132.2z"/>
	<path class="st7" d="M350.7,128.8v3.1c-0.8,0.3-1.6,0.5-2.5,0.5c-2.6,0-4.2-1.7-4.2-3.9c0-2,1.6-3.8,4.2-3.8c0.8,0,1.6,0.3,2.1,0.6
		l-0.5,0.9c-0.4-0.2-1-0.4-1.6-0.4c-1.6,0-2.7,1.1-2.7,2.8c0,1.8,1.3,2.8,2.5,2.8c0.4,0,0.7,0,1-0.2v-2.3H350.7z"/>
</g>
<polygon class="st3" points="353,124.8 353,125.7 355.3,125.7 355.3,132.2 356.8,132.2 356.8,125.7 359.1,125.7 359.1,124.8 "/>
<g>
	<defs>
		<rect id="SVGID_11_" width="575" height="132.3"/>
	</defs>
	<clipPath id="SVGID_12_">
		<use xlink:href="#SVGID_11_"  style="overflow:visible;"/>
	</clipPath>
	<path class="st8" d="M366.7,128.4c0-1.4-0.6-2.7-2.1-2.7c-1.5,0-2.1,1.3-2.1,2.7c0,1.4,0.6,2.9,2.1,2.9
		C366.1,131.2,366.7,129.8,366.7,128.4 M360.8,128.4c0-2.1,1.6-3.7,3.7-3.7c2.1,0,3.7,1.7,3.7,3.7c0,2.2-1.4,3.9-3.7,3.9
		C362.3,132.3,360.8,130.6,360.8,128.4"/>
	<path class="st8" d="M377.3,132.2h-1.1c-1.4-1.7-2.8-3.4-4.2-5.3h0v5.3h-1.2v-7.4h1.1c1.4,1.7,2.8,3.4,4.2,5.3h0v-5.3h1.2V132.2z"
		/>
	<path class="st8" d="M388.2,126c-0.3-0.2-0.8-0.4-1.2-0.4c-0.6,0-1,0.3-1,0.8c0,0.5,0.5,0.9,1.4,1.5c1,0.8,1.5,1.4,1.5,2.3
		c0,0.9-0.9,2-2.6,2c-0.8,0-1.6-0.2-2.2-0.7l0.5-0.8c0.4,0.3,0.8,0.6,1.5,0.6c0.6,0,1.2-0.3,1.2-1c0-0.8-1-1.4-1.6-1.8
		c-0.7-0.6-1.3-1-1.3-2c0-1,1-1.8,2.4-1.8c0.8,0,1.5,0.3,1.9,0.6L388.2,126z"/>
</g>
<polygon class="st3" points="390.8,124.8 390.8,125.7 393.1,125.7 393.1,132.2 394.6,132.2 394.6,125.7 396.9,125.7 396.9,124.8 "/>
<g>
	<defs>
		<rect id="SVGID_13_" width="575" height="132.3"/>
	</defs>
	<clipPath id="SVGID_14_">
		<use xlink:href="#SVGID_13_"  style="overflow:visible;"/>
	</clipPath>
	<path class="st9" d="M402.1,129.2c-0.3-1-0.6-1.9-1-3h0c-0.3,1.1-0.7,2-1,3H402.1z M401.9,124.8l2.8,7.4H403l-0.7-2h-2.6l-0.8,2
		h-1.3l3-7.4H401.9z"/>
</g>
<polygon class="st3" points="405.4,124.8 405.4,125.7 407.7,125.7 407.7,132.2 409.2,132.2 409.2,125.7 411.5,125.7 411.5,124.8 "/>
<polygon class="st3" points="413.7,124.8 413.7,132.2 418.1,132.2 418.1,131.2 415.1,131.2 415.1,128.8 417.6,128.8 417.6,127.8 
	415.1,127.8 415.1,125.7 417.6,125.7 417.6,124.8 "/>
<g>
	<defs>
		<rect id="SVGID_15_" width="575" height="132.3"/>
	</defs>
	<clipPath id="SVGID_16_">
		<use xlink:href="#SVGID_15_"  style="overflow:visible;"/>
	</clipPath>
	<path class="st10" d="M426.3,124.8v4.3c0,1.5,0.4,2.2,1.6,2.2c1.1,0,1.6-1,1.6-2.2v-4.3h1.3v4.6c0,1.9-1.2,2.9-3,2.9
		c-2,0-3.1-1-3.1-3v-4.5H426.3z"/>
	<path class="st10" d="M440.2,132.2h-1.1c-1.4-1.7-2.8-3.4-4.2-5.3h0v5.3h-1.2v-7.4h1.1c1.4,1.7,2.8,3.4,4.2,5.3h0v-5.3h1.2V132.2z"
		/>
</g>
<rect x="443.2" y="124.8" class="st3" width="1.5" height="7.4"/>
<g>
	<defs>
		<rect id="SVGID_17_" width="575" height="132.3"/>
	</defs>
	<clipPath id="SVGID_18_">
		<use xlink:href="#SVGID_17_"  style="overflow:visible;"/>
	</clipPath>
	<path class="st11" d="M449.5,132.2l-2.8-7.3l1.6-0.2c0.7,1.9,1.3,3.8,1.9,5.9h0c0.7-2.1,1.4-4,2.1-5.9l1.3,0.2l-2.9,7.3H449.5z"/>
</g>
<polygon class="st3" points="455.8,124.8 455.8,132.2 460.2,132.2 460.2,131.2 457.3,131.2 457.3,128.8 459.7,128.8 459.7,127.8 
	457.3,127.8 457.3,125.7 459.7,125.7 459.7,124.8 "/>
<g>
	<defs>
		<rect id="SVGID_19_" width="575" height="132.3"/>
	</defs>
	<clipPath id="SVGID_20_">
		<use xlink:href="#SVGID_19_"  style="overflow:visible;"/>
	</clipPath>
	<path class="st12" d="M464.2,128.2h0.6c1,0,1.4-0.8,1.4-1.3c0-0.8-0.6-1.1-1.2-1.1h-0.8V128.2z M462.7,124.8h2.6
		c1.4,0,2.4,0.7,2.4,1.9c0,1.1-0.6,1.7-1.3,2.2l1.8,3.2l-1.6,0.3l-1.5-3.1h-0.9v3h-1.5V124.8z"/>
	<path class="st12" d="M474.1,126c-0.3-0.2-0.8-0.4-1.2-0.4c-0.6,0-1,0.3-1,0.8c0,0.5,0.5,0.9,1.4,1.5c1,0.8,1.5,1.4,1.5,2.3
		c0,0.9-0.9,2-2.6,2c-0.8,0-1.6-0.2-2.2-0.7l0.5-0.8c0.4,0.3,0.8,0.6,1.5,0.6c0.6,0,1.2-0.3,1.2-1c0-0.8-1-1.4-1.6-1.8
		c-0.7-0.6-1.3-1-1.3-2c0-1,1-1.8,2.4-1.8c0.8,0,1.5,0.3,1.9,0.6L474.1,126z"/>
</g>
<rect x="477.5" y="124.8" class="st3" width="1.5" height="7.4"/>
<polygon class="st3" points="481.1,124.8 481.1,125.7 483.4,125.7 483.4,132.2 484.9,132.2 484.9,125.7 487.2,125.7 487.2,124.8 "/>
<g>
	<defs>
		<rect id="SVGID_21_" width="575" height="132.3"/>
	</defs>
	<clipPath id="SVGID_22_">
		<use xlink:href="#SVGID_21_"  style="overflow:visible;"/>
	</clipPath>
	<path class="st13" d="M491,132.2v-3.1l-2.3-4.2l1.7-0.2c0.5,1.1,1,2.1,1.5,3.4c0.6-1.3,1.2-2.4,1.7-3.4l1.2,0.2l-2.4,4.2v3.1H491z"
		/>
	<path class="st13" d="M503.4,132.2l-2.8-7.3l1.6-0.2c0.7,1.9,1.3,3.8,1.9,5.9h0c0.7-2.1,1.4-4,2.1-5.9l1.3,0.2l-2.9,7.3H503.4z"/>
	<path class="st13" d="M512.7,129.2c-0.3-1-0.6-1.9-1-3h0c-0.3,1.1-0.7,2-1,3H512.7z M512.5,124.8l2.8,7.4h-1.7l-0.7-2h-2.6l-0.8,2
		h-1.3l3-7.4H512.5z"/>
	<path class="st13" d="M523.9,132.2h-1.1c-1.4-1.7-2.8-3.4-4.2-5.3h0v5.3h-1.2v-7.4h1.1c1.4,1.7,2.8,3.4,4.2,5.3h0v-5.3h1.2V132.2z"
		/>
	<path class="st13" d="M532.2,126.1c-0.4-0.2-1-0.4-1.5-0.4c-1.5,0-2.6,1.1-2.6,2.8c0,1.8,1.2,2.8,2.7,2.8c0.6,0,1.1-0.2,1.5-0.4
		l0.4,0.9c-0.5,0.3-1.3,0.5-2,0.5c-2.6,0-4.2-1.7-4.2-3.9c0-2,1.6-3.8,4.2-3.8c0.8,0,1.5,0.3,2,0.6L532.2,126.1z"/>
	<path class="st13" d="M540.5,128.4c0-1.4-0.6-2.7-2.1-2.7s-2.1,1.3-2.1,2.7c0,1.4,0.6,2.9,2.1,2.9
		C540,131.2,540.5,129.8,540.5,128.4 M534.7,128.4c0-2.1,1.6-3.7,3.7-3.7s3.7,1.7,3.7,3.7c0,2.2-1.4,3.9-3.7,3.9
		C536.1,132.3,534.7,130.6,534.7,128.4"/>
	<path class="st13" d="M546.1,124.8v4.3c0,1.5,0.4,2.2,1.6,2.2c1.1,0,1.6-1,1.6-2.2v-4.3h1.3v4.6c0,1.9-1.2,2.9-3,2.9
		c-2,0-3.1-1-3.1-3v-4.5H546.1z"/>
	<path class="st13" d="M555.4,132.2l-2.8-7.3l1.6-0.2c0.7,1.9,1.3,3.8,2,5.9h0c0.7-2.1,1.4-4,2.1-5.9l1.3,0.2l-2.9,7.3H555.4z"/>
</g>
<polygon class="st3" points="561.7,124.8 561.7,132.2 566.1,132.2 566.1,131.2 563.2,131.2 563.2,128.8 565.6,128.8 565.6,127.8 
	563.2,127.8 563.2,125.7 565.7,125.7 565.7,124.8 "/>
<g>
	<defs>
		<rect id="SVGID_23_" width="575" height="132.3"/>
	</defs>
	<clipPath id="SVGID_24_">
		<use xlink:href="#SVGID_23_"  style="overflow:visible;"/>
	</clipPath>
	<path class="st14" d="M570.1,128.2h0.6c1,0,1.4-0.8,1.4-1.3c0-0.8-0.6-1.1-1.2-1.1h-0.8V128.2z M568.6,124.8h2.6
		c1.4,0,2.4,0.7,2.4,1.9c0,1.1-0.6,1.7-1.3,2.2l1.8,3.2l-1.6,0.3l-1.5-3.1h-0.9v3h-1.5V124.8z"/>
</g>
<polygon class="st3" points="520.9,48.2 518.4,48.2 518.4,50.6 520.8,50.6 520.8,51.6 518.4,51.6 518.4,54.6 516.9,54.6 516.9,47.2 
	520.9,47.2 "/>
<g>
	<defs>
		<rect id="SVGID_25_" width="575" height="132.3"/>
	</defs>
	<clipPath id="SVGID_26_">
		<use xlink:href="#SVGID_25_"  style="overflow:visible;"/>
	</clipPath>
	<path class="st15" d="M526.5,51.6c-0.3-1-0.6-1.9-1-3h0c-0.3,1.1-0.7,2-1,3H526.5z M526.3,47.2l2.8,7.4h-1.7l-0.7-2h-2.6l-0.8,2
		h-1.3l3-7.4H526.3z"/>
</g>
<polygon class="st3" points="531,47.2 532.4,47.2 532.4,53.6 535.4,53.6 535.4,54.6 531,54.6 "/>
<polygon class="st3" points="537.4,47.2 538.9,47.2 538.9,53.6 541.9,53.6 541.9,54.6 537.4,54.6 "/>
<g>
	<defs>
		<rect id="SVGID_27_" width="575" height="132.3"/>
	</defs>
	<clipPath id="SVGID_28_">
		<use xlink:href="#SVGID_27_"  style="overflow:visible;"/>
	</clipPath>
	<path class="st16" d="M547.4,53.8l1.4-1.4c1.8-1.8,2.3-2.6,2.3-3.4c0-0.5-0.4-1.1-1-1.1c-0.6,0-1.2,0.4-1.6,0.8l-0.6-0.7
		c0.5-0.5,1.3-1.1,2.5-1.1c1.3,0,2.4,0.7,2.4,1.9c0,0.8-0.3,1.5-1.8,3l-1.4,1.5h3.3v1.1h-5.4V53.8z"/>
	<path class="st16" d="M558.3,50.7c0-1.8-0.5-2.7-1.2-2.7c-0.7,0-1.2,1-1.2,2.7c0,2,0.5,3,1.2,3C557.8,53.7,558.3,52.7,558.3,50.7
		 M554.4,50.7c0-1.7,0.8-3.7,2.7-3.7c1.9,0,2.7,2,2.7,3.7c0,2.4-1.1,4-2.7,4C555.5,54.7,554.4,53.2,554.4,50.7"/>
</g>
<polygon class="st3" points="565.3,54.6 563.8,54.6 563.8,48.1 562.3,48.7 562.1,47.8 564.1,47 565.3,47 "/>
<g>
	<defs>
		<rect id="SVGID_29_" width="575" height="132.3"/>
	</defs>
	<clipPath id="SVGID_30_">
		<use xlink:href="#SVGID_29_"  style="overflow:visible;"/>
	</clipPath>
	<path class="st17" d="M570.1,48.8c0,0.7,0.6,1,1.1,1.3c0.4-0.3,0.9-0.7,0.9-1.3c0-0.5-0.3-1-1-1C570.5,47.8,570.1,48.2,570.1,48.8
		 M572.4,52.6c0-0.9-1.1-1.3-1.5-1.5c-0.5,0.3-0.9,0.7-0.9,1.5c0,0.7,0.5,1.3,1.2,1.3C572,53.9,572.4,53.3,572.4,52.6 M568.3,52.7
		c0-1.1,0.9-1.8,1.5-2.2c-0.6-0.2-1.2-0.8-1.2-1.7c0-1.2,1.1-1.8,2.6-1.8c1.3,0,2.4,0.5,2.4,1.8c0,0.7-0.9,1.5-1.4,1.7
		c0.6,0.3,1.8,0.9,1.8,2.1c0,1.3-1.2,2.1-2.9,2.1C569.5,54.7,568.3,53.8,568.3,52.7"/>
</g>
</svg>
